<?xml version="1.0" standalone="no"?>
<!DOCTYPE svg PUBLIC "-//W3C//DTD SVG 20010904//EN"
 "http://www.w3.org/TR/2001/REC-SVG-20010904/DTD/svg10.dtd">
<svg version="1.0" xmlns="http://www.w3.org/2000/svg"
 width="500.000000pt" height="500.000000pt" viewBox="0 0 500.000000 500.000000"
 preserveAspectRatio="xMidYMid meet">
<metadata>
Created by potrace 1.14, written by Peter Selinger 2001-2017
</metadata>
<g transform="translate(0.000000,500.000000) scale(0.100000,-0.100000)"
fill="#000000" stroke="none">
<path d="M2345 3660 c-4 -6 -1 -10 5 -10 7 0 10 -6 8 -12 -3 -7 -11 -13 -18
-13 -7 0 -15 -6 -18 -14 -3 -8 0 -11 7 -7 6 4 11 2 11 -3 0 -6 -4 -11 -8 -11
-5 0 -9 -6 -9 -12 0 -7 -2 -19 -4 -27 -3 -10 7 -17 26 -22 24 -5 26 -7 7 -8
-21 -1 -22 -4 -16 -36 4 -23 2 -35 -5 -35 -6 0 -11 -10 -10 -22 0 -13 3 -17 6
-10 2 6 19 12 37 12 18 0 36 4 42 10 6 6 21 2 44 -14 l34 -23 13 25 c17 32 16
50 -2 68 -8 8 -12 21 -9 29 4 9 0 15 -9 15 -9 0 -18 8 -21 18 -10 29 -47 64
-62 58 -10 -4 -14 2 -14 18 0 25 -25 42 -35 26z"/>
<path d="M2204 3393 c-9 -10 -21 -19 -26 -19 -4 -1 -12 -2 -17 -3 -11 -1 -21
-38 -13 -46 3 -3 7 -38 9 -78 7 -151 9 -176 22 -191 9 -11 10 -20 2 -33 -6
-10 -11 -12 -11 -5 0 16 -30 16 -30 -1 0 -7 -6 -21 -13 -31 -12 -17 -15 -17
-51 8 -38 26 -76 34 -76 17 0 -5 15 -12 33 -15 58 -11 103 -75 57 -81 -8 -1
-35 -5 -60 -8 -128 -16 -149 -20 -154 -34 -3 -8 -1 -11 4 -8 6 4 27 -4 48 -16
20 -12 31 -16 25 -9 -22 24 -15 28 40 25 28 -1 52 -4 52 -5 0 -1 35 -3 77 -4
85 -2 104 -9 64 -27 -14 -7 -26 -16 -26 -20 0 -8 -24 -6 -85 6 -32 7 -28 -34
5 -42 14 -3 38 -20 53 -37 15 -17 26 -25 25 -18 -5 24 24 35 57 22 17 -7 24
-14 17 -17 -7 -3 -19 0 -26 6 -11 9 -13 6 -13 -15 0 -14 6 -28 14 -31 8 -3 12
-12 9 -19 -3 -8 4 -18 14 -24 14 -7 20 -7 20 0 0 5 9 10 20 10 11 0 20 5 20
11 0 8 5 8 15 -1 16 -14 21 -35 6 -25 -12 7 -31 -26 -31 -54 0 -12 -5 -21 -11
-21 -5 0 -7 4 -4 10 8 14 -22 57 -45 63 -13 3 -17 1 -13 -9 3 -8 10 -14 17
-14 6 0 4 -5 -4 -10 -12 -8 -12 -10 -1 -10 8 0 11 -7 8 -20 -3 -11 -1 -18 4
-14 5 3 9 12 9 20 0 8 4 13 9 10 15 -9 6 -39 -15 -50 -10 -6 -23 -15 -27 -21
-5 -6 -6 -3 -3 8 6 19 -31 64 -42 52 -4 -4 1 -12 11 -20 17 -12 14 -45 -5 -45
-5 0 -7 4 -4 8 3 5 -1 9 -8 9 -8 0 -12 -7 -8 -15 4 -11 1 -13 -7 -7 -8 4 -17
2 -22 -6 -6 -11 -9 -8 -9 8 0 12 8 26 17 32 10 5 14 13 10 17 -9 10 -36 -26
-37 -49 0 -14 -6 -16 -29 -12 -18 3 -35 0 -43 -9 -8 -7 -27 -12 -42 -10 -36 4
-156 54 -156 66 0 4 -7 8 -16 8 -10 0 -14 6 -11 14 4 10 0 12 -14 9 -10 -3
-19 0 -19 6 0 6 -6 11 -14 11 -8 0 -16 3 -18 8 -1 4 -29 27 -60 51 -88 67
-185 174 -199 221 -15 51 -33 40 -55 -36 -11 -40 -14 -81 -10 -171 10 -217 18
-358 22 -364 14 -24 2 -1653 -12 -1668 -2 -2 -4 202 -5 455 0 252 -2 466 -3
474 -9 47 -17 331 -17 566 1 193 -3 303 -14 380 -8 59 -15 133 -16 163 l0 56
-16 -31 c-9 -19 -29 -37 -49 -45 -19 -7 -42 -21 -51 -31 -9 -10 -24 -18 -33
-18 -26 0 -102 -53 -131 -91 -14 -19 -36 -53 -48 -76 -30 -61 -58 -76 -112
-64 -41 9 -46 8 -74 -17 -16 -15 -31 -30 -33 -34 -2 -4 -21 -5 -43 -2 -36 5
-42 3 -72 -31 -20 -22 -44 -38 -57 -39 -19 -1 -30 -13 -50 -53 -14 -29 -32
-52 -41 -52 -17 -1 -31 -25 -49 -84 -8 -24 -17 -37 -27 -35 -16 3 -72 -118
-73 -159 0 -12 -3 -23 -7 -25 -15 -6 -55 -119 -50 -138 3 -11 0 -23 -6 -28
-27 -17 -50 -54 -72 -118 -26 -73 -31 -99 -15 -74 5 8 10 11 10 6 0 -5 6 -3
14 3 18 15 25 5 40 -61 l11 -49 22 20 c41 38 53 30 68 -46 7 -34 18 -42 31
-21 10 15 34 -19 34 -49 0 -13 6 -23 14 -23 10 0 19 -20 27 -60 6 -33 13 -60
14 -60 1 0 16 5 33 11 30 10 30 11 25 67 -3 31 -11 73 -17 92 -17 52 -15 125
4 125 8 0 17 5 18 10 2 6 8 15 14 22 6 8 4 21 -6 40 -8 15 -15 22 -16 16 0
-16 -43 -10 -48 6 -3 9 2 11 16 7 12 -4 22 -1 25 8 8 19 -3 28 -19 15 -10 -8
-15 -5 -20 15 -3 13 -3 31 1 38 3 7 0 5 -8 -4 -18 -22 -27 -23 -27 -3 0 9 -11
20 -24 26 -17 8 -31 30 -45 68 -40 105 -32 154 22 144 23 -5 25 -2 31 56 4 33
11 63 16 66 5 3 21 33 36 66 25 56 30 60 56 57 22 -4 28 -1 28 13 0 10 4 20 9
24 5 3 12 19 16 36 7 29 9 30 49 27 38 -3 45 1 75 34 29 33 37 37 69 33 19 -2
39 -8 44 -13 5 -5 24 6 44 25 20 18 38 33 42 33 4 0 7 -79 7 -175 0 -132 -3
-176 -13 -180 -9 -3 -10 0 -2 15 12 22 13 41 3 38 -10 -4 -12 12 -5 31 14 37
-34 56 -64 26 -18 -17 -18 -20 3 -41 13 -13 14 -19 5 -22 -17 -5 -15 -32 3
-32 8 0 15 -7 15 -15 0 -8 -7 -15 -16 -15 -13 0 -14 -3 -4 -15 7 -8 16 -12 21
-9 5 3 9 0 9 -5 0 -6 -6 -11 -14 -11 -21 0 -8 -36 20 -54 14 -10 25 -12 29 -6
16 26 20 -1 20 -140 0 -83 -3 -150 -8 -150 -4 0 -5 5 -2 10 3 6 -1 10 -9 10
-9 0 -16 7 -16 15 0 8 -4 15 -10 15 -5 0 -10 7 -10 15 0 26 -21 16 -31 -15
-11 -29 -29 -41 -29 -19 0 5 -4 7 -10 4 -5 -3 -10 -1 -10 5 0 6 -4 9 -9 6 -9
-6 -25 -82 -22 -103 1 -7 -2 -13 -7 -13 -6 0 -7 -15 -2 -37 18 -82 -1 -107
-57 -78 -34 18 -58 3 -42 -26 7 -13 6 -19 -1 -19 -7 0 -7 -6 0 -21 7 -11 9
-23 6 -26 -3 -3 0 -15 6 -26 9 -17 8 -19 -8 -13 -9 4 -20 2 -24 -4 -4 -7 -16
-4 -32 9 -14 11 -28 18 -31 14 -6 -5 0 -107 8 -130 2 -7 -2 -10 -12 -6 -12 5
-14 1 -8 -18 5 -13 12 -39 16 -58 8 -36 40 -86 55 -86 5 0 18 -5 28 -11 21
-13 12 -39 -10 -30 -17 7 -44 -3 -44 -15 0 -5 6 -9 14 -9 8 0 19 -12 24 -27 6
-16 22 -41 36 -57 26 -29 35 -76 16 -76 -5 0 -10 9 -10 20 0 11 -7 20 -15 20
-8 0 -15 -4 -15 -10 0 -5 -7 -7 -15 -4 -11 5 -15 -1 -15 -24 0 -17 6 -33 13
-35 7 -4 3 -8 -10 -12 -27 -8 -27 -13 -9 -81 13 -48 12 -51 -8 -68 -20 -16
-21 -16 -24 4 -2 11 -8 18 -13 15 -12 -8 -12 -45 1 -45 6 0 10 -7 10 -16 0
-12 -9 -8 -32 16 -35 37 -82 48 -98 21 -5 -9 -10 -12 -10 -7 0 5 -7 3 -15 -4
-12 -10 -15 -10 -15 4 0 9 -5 16 -11 16 -5 0 -7 5 -4 10 3 6 1 10 -4 10 -6 0
-11 8 -11 19 0 12 -9 20 -25 23 -20 4 -28 0 -38 -20 -14 -30 -37 -41 -37 -18
0 9 -5 15 -12 13 -6 -1 -15 14 -20 34 -13 51 -45 50 -78 -3 -22 -34 -26 -37
-37 -23 -6 9 -15 34 -18 56 -8 44 -19 49 -36 17 -11 -22 -44 -58 -52 -58 -8 0
-24 57 -29 98 -2 17 -23 9 -23 -9 -1 -8 -5 -39 -9 -70 -4 -31 -9 -74 -11 -95
-2 -21 -6 -50 -11 -63 -6 -21 -5 -22 13 -13 11 6 25 18 33 26 7 9 17 16 22 16
10 0 38 -25 38 -34 0 -2 4 -16 10 -31 l10 -26 36 37 37 36 19 -23 c10 -13 23
-34 28 -46 13 -30 36 -29 44 2 4 14 10 24 14 23 4 0 14 2 23 6 17 7 70 -37 82
-68 8 -20 34 -10 42 15 4 10 12 19 18 19 16 -1 47 -25 47 -37 0 -5 5 -14 12
-21 9 -9 17 -5 34 13 27 29 46 31 68 9 18 -17 22 -39 6 -29 -5 3 -10 1 -10 -4
0 -6 5 -11 11 -11 6 0 9 -9 6 -20 -5 -20 7 -36 33 -42 21 -4 47 -41 32 -46 -6
-2 -8 -10 -5 -18 3 -8 -1 -14 -8 -14 -8 0 -23 -15 -33 -33 -15 -24 -20 -28
-23 -16 -6 23 -38 30 -62 12 -18 -12 -21 -12 -21 0 0 20 -57 28 -71 10 -6 -7
-9 -24 -5 -37 7 -28 -18 -43 -41 -24 -12 10 -12 13 1 20 16 9 22 44 9 51 -5 2
-20 7 -35 11 -24 5 -28 3 -34 -20 -4 -17 -2 -29 6 -34 20 -13 -12 -40 -39 -33
-26 7 -27 21 -3 39 20 15 8 42 -24 55 -30 11 -43 -2 -52 -48 -7 -40 -8 -41
-27 -26 -14 11 -16 17 -7 20 6 3 12 15 12 29 0 17 -7 25 -25 30 -47 12 -73
-18 -42 -48 15 -13 11 -51 -4 -42 -5 3 -9 -1 -10 -8 0 -7 -2 -21 -4 -30 -4
-24 37 -27 319 -25 l238 2 17 45 c18 47 110 179 125 180 4 0 5 -12 1 -27 -5
-23 -4 -25 9 -14 13 11 16 11 16 -3 0 -10 5 -14 10 -11 6 3 10 -1 10 -10 0 -9
4 -13 10 -10 6 4 10 -6 10 -22 1 -25 2 -26 14 -10 20 26 24 22 31 -35 13 -101
23 -112 43 -46 21 66 33 367 36 883 4 465 8 617 26 850 5 66 12 168 15 227 16
275 64 527 105 553 14 9 13 -1 -16 -90 -22 -70 -25 -96 -25 -220 1 -77 -3
-187 -9 -245 -27 -285 -44 -665 -45 -1030 -3 -539 -12 -799 -32 -885 -12 -52
-18 -65 -24 -50 -7 19 -8 19 -8 -1 -1 -12 6 -25 15 -28 24 -9 54 -7 54 4 0 6
9 6 26 0 34 -13 111 -13 119 0 5 8 11 8 20 0 7 -6 15 -7 18 -3 3 4 7 60 10
123 5 104 4 110 -6 62 -10 -46 -12 -20 -15 202 l-3 256 28 -1 c15 -1 21 -3 12
-6 -17 -4 -25 -63 -8 -63 5 0 9 -5 9 -11 0 -5 -4 -7 -10 -4 -6 3 -10 -4 -10
-17 0 -18 2 -20 10 -8 5 8 12 12 15 8 3 -3 -1 -13 -10 -22 -9 -9 -12 -16 -7
-16 16 0 21 -40 6 -54 -11 -11 -11 -16 -1 -19 9 -4 9 -6 0 -6 -7 -1 -13 -9
-13 -18 0 -15 2 -16 10 -3 11 17 15 -63 10 -200 -2 -47 -4 -112 -4 -145 l-1
-60 40 0 40 0 5 95 c6 112 20 97 20 -21 0 -92 18 -107 44 -36 48 130 46 109
46 571 0 241 -3 442 -5 446 -3 5 -9 174 -15 377 -7 293 -13 391 -30 483 -20
118 -27 373 -11 415 16 41 31 -47 30 -175 -1 -69 3 -152 9 -185 22 -116 44
-374 58 -675 3 -80 10 -201 14 -270 12 -216 6 -901 -8 -934 -7 -16 -10 -31 -8
-34 3 -2 11 8 18 24 13 28 13 28 18 -26 4 -47 8 -55 25 -55 15 0 22 9 26 35 4
20 7 26 8 13 3 -46 11 -53 67 -53 67 0 81 19 80 103 -1 45 1 56 12 52 7 -3 16
-5 18 -5 2 0 4 -7 4 -15 0 -21 19 -19 27 2 8 19 60 73 71 73 4 0 16 -11 26
-25 10 -13 23 -22 29 -18 6 4 8 0 4 -10 -11 -30 20 -19 57 19 30 31 38 35 51
24 8 -7 15 -9 15 -4 0 5 7 -4 15 -20 8 -15 12 -33 8 -39 -3 -5 -1 -7 5 -3 6 3
13 2 17 -4 3 -5 12 -10 18 -10 9 0 9 2 0 8 -9 6 -4 18 18 45 33 40 49 45 73
22 8 -8 19 -15 25 -15 6 0 8 -6 5 -14 -9 -24 15 -28 33 -5 25 30 56 59 62 59
12 -1 58 -47 65 -65 7 -19 8 -19 27 5 10 14 27 33 36 43 17 18 18 17 37 -5 10
-13 23 -22 27 -20 5 1 9 -7 9 -17 0 -10 7 -22 16 -25 22 -9 24 -8 17 10 -3 8
4 25 18 40 31 33 67 22 96 -30 9 -17 13 -16 43 18 18 20 39 36 45 36 7 0 31
-18 54 -40 45 -43 54 -48 44 -25 -3 10 7 27 27 45 l33 30 23 -25 c12 -13 25
-21 28 -18 3 4 6 -1 6 -10 0 -9 5 -17 11 -17 6 0 8 -7 5 -16 -3 -8 -2 -12 4
-9 6 3 10 26 10 51 0 56 14 56 35 -1 10 -24 21 -42 26 -39 14 8 10 -3 -6 -19
-13 -13 -13 -16 1 -27 12 -11 13 -10 8 4 -13 33 8 15 22 -20 17 -40 30 -42 15
-2 -7 19 -5 27 8 35 13 8 17 20 13 45 -2 18 -9 38 -13 44 -6 7 -6 21 0 35 5
13 9 28 9 32 1 14 12 21 12 8 0 -7 5 -9 10 -6 24 15 6 123 -30 175 -10 14 -23
45 -30 69 -9 33 -14 41 -21 30 -10 -16 -10 -17 -15 41 -2 25 -5 54 -8 65 -3
11 -1 36 4 55 5 24 8 28 9 13 2 -36 19 -27 30 15 19 71 24 122 12 122 -6 0
-11 -12 -11 -26 0 -14 -9 -37 -20 -51 -23 -29 -27 -14 -6 25 7 15 19 43 26 62
28 78 36 98 49 114 7 8 16 15 19 14 24 -3 115 5 104 9 -6 2 -9 9 -6 14 3 6 1
16 -5 23 -6 7 -18 32 -26 55 l-15 43 25 -16 c34 -23 32 -6 -10 75 -19 38 -35
77 -35 88 0 11 -4 23 -10 26 -5 3 -10 17 -10 30 0 28 -17 42 -32 27 -8 -8 -18
-6 -34 5 -20 12 -21 18 -11 34 14 23 27 25 27 4 0 -8 5 -15 10 -15 6 0 10 7
10 16 0 21 -19 54 -31 54 -6 0 -8 -3 -6 -7 3 -5 -2 -15 -11 -23 -14 -13 -15
-12 -9 5 5 11 3 22 -5 27 -24 14 -36 9 -30 -14 3 -14 2 -19 -6 -14 -18 11 -14
-5 4 -18 19 -14 25 -47 11 -64 -5 -7 -8 -13 -6 -15 2 -1 13 -7 24 -13 13 -8
19 -21 18 -38 -1 -21 3 -26 23 -26 13 0 23 -3 23 -7 -4 -25 28 -73 49 -73 5 0
12 -9 15 -20 3 -11 1 -20 -4 -20 -4 0 -6 -7 -2 -15 3 -9 2 -15 -3 -14 -18 5
-61 -13 -60 -24 0 -7 -3 -12 -7 -12 -5 0 -15 -12 -23 -27 -19 -36 -48 -38 -42
-3 4 18 0 26 -14 31 -32 10 -48 47 -61 145 -13 94 -13 118 -3 322 4 81 2 116
-8 142 -13 30 -13 35 5 50 15 15 17 27 12 74 -5 55 -4 58 26 83 17 15 31 31
31 37 0 31 36 79 75 100 24 12 51 30 62 40 34 31 221 86 294 86 73 0 73 7 2
44 -49 24 -61 40 -42 52 12 7 12 9 0 9 -8 0 -11 6 -7 16 3 8 2 12 -4 9 -6 -3
-10 -1 -10 4 0 6 -9 11 -20 11 -11 0 -20 5 -20 11 0 6 9 8 21 4 21 -7 21 -7 3
18 -28 38 -121 96 -162 102 -21 3 -55 9 -77 14 -25 6 -44 6 -50 0 -5 -5 3 -9
23 -9 21 0 32 -5 32 -14 0 -10 16 -17 45 -22 83 -12 203 -94 138 -94 -15 0
-15 -1 1 -19 16 -18 16 -18 -9 -13 -14 2 -28 8 -31 13 -7 12 -51 11 -59 -1
-10 -16 -38 -12 -31 5 3 10 -1 15 -12 16 -32 2 -47 -2 -84 -27 -21 -13 -38
-21 -38 -16 0 4 12 15 26 23 15 9 22 19 17 22 -14 9 -113 -87 -113 -109 0 -14
2 -15 17 -3 12 10 10 4 -5 -18 -13 -18 -19 -38 -16 -48 4 -9 -2 -25 -13 -38
-11 -12 -26 -33 -33 -47 -13 -25 -13 -25 8 -7 20 19 20 18 19 -20 -1 -27 -10
-47 -29 -66 -32 -32 -38 -33 -39 -9 0 9 -5 4 -10 -13 -4 -16 -5 -32 0 -35 11
-7 12 -75 2 -102 -7 -20 -10 -16 -16 24 -8 56 -29 56 -40 0 -8 -42 -35 -88
-35 -59 0 9 -4 17 -9 17 -5 0 -12 18 -16 41 -6 34 -10 40 -26 36 -11 -3 -19 0
-19 8 0 18 -44 45 -59 36 -6 -4 -9 -15 -5 -24 3 -9 2 -17 -4 -17 -9 0 -27 -47
-24 -62 1 -5 -2 -8 -7 -8 -5 0 -15 16 -21 36 -17 49 -31 29 -17 -23 6 -23 8
-45 4 -49 -6 -6 -37 19 -37 30 0 17 -39 43 -51 35 -8 -5 -10 -9 -5 -9 6 0 5
-5 -2 -12 -7 -7 -12 -18 -12 -26 0 -7 -6 -20 -14 -27 -12 -12 -16 -10 -29 18
-8 18 -17 41 -19 51 -5 31 -28 31 -28 1 0 -21 -4 -26 -16 -21 -9 3 -18 6 -20
6 -2 0 -4 7 -4 16 0 22 -33 61 -47 57 -7 -3 -25 -27 -39 -54 -26 -47 -44 -62
-44 -37 0 6 -3 8 -7 5 -3 -4 -11 3 -17 16 -15 29 -38 28 -46 -3 -11 -38 -50
-99 -50 -77 0 10 -4 16 -8 13 -4 -2 -13 8 -20 23 -13 29 -42 38 -42 14 0 -8
-5 -19 -10 -26 -6 -7 -20 -23 -32 -37 -14 -17 -22 -21 -25 -12 -3 6 -9 10 -14
6 -8 -5 -13 9 -10 29 0 4 -3 7 -9 7 -5 0 -10 7 -10 15 0 30 -28 14 -49 -27 -8
-16 -20 -28 -27 -28 -7 0 -15 -8 -17 -17 -4 -17 -5 -17 -6 0 0 9 -5 17 -11 17
-5 0 -16 16 -24 35 -13 30 -46 50 -46 27 0 -10 -54 -72 -63 -72 -4 0 -7 7 -7
15 0 8 -4 15 -10 15 -5 0 -10 7 -10 15 0 8 -4 15 -8 15 -12 0 -42 67 -42 93 0
13 5 28 11 34 8 8 5 17 -11 33 -20 20 -22 29 -16 86 5 49 3 64 -6 64 -9 1 -9
4 2 13 22 17 26 77 6 77 -19 0 -20 13 -3 41 10 18 9 23 -13 41 l-25 21 25 -6
c14 -4 30 -7 37 -7 6 0 9 -9 6 -21 -4 -12 0 -25 8 -30 12 -8 12 -10 -1 -19
-12 -7 -12 -12 -2 -22 16 -16 16 -45 0 -51 -10 -3 -9 -8 2 -22 11 -14 12 -19
3 -22 -18 -6 -16 -41 2 -59 12 -13 17 -12 35 3 22 20 27 49 8 56 -10 4 -10 7
0 18 14 15 16 43 2 34 -5 -3 -10 3 -10 14 0 12 5 21 10 21 14 0 12 27 -2 33
-10 4 -10 6 0 6 7 1 18 13 24 29 l12 27 4 -25 c2 -14 8 -30 14 -37 11 -14 1
-36 -13 -28 -16 10 -10 -37 7 -56 16 -18 11 -44 -7 -34 -16 10 -10 -34 8 -54
16 -20 17 -20 40 2 27 26 29 43 6 51 -15 6 -15 8 -3 16 28 18 40 11 40 -22 0
-17 7 -39 16 -49 15 -17 18 -17 40 -2 27 17 33 53 9 53 -21 0 -19 17 5 30 24
13 29 66 5 56 -10 -4 -15 1 -15 14 0 11 6 19 12 17 7 -1 14 8 16 21 4 28 18
29 25 1 3 -12 10 -18 16 -14 6 3 11 1 11 -4 0 -6 -7 -11 -15 -11 -8 0 -15 -7
-15 -15 0 -8 5 -15 10 -15 14 0 12 -28 -2 -33 -10 -3 -10 -7 0 -20 11 -13 10
-17 -4 -25 -11 -6 -14 -16 -9 -31 3 -12 11 -19 16 -16 5 4 9 -1 9 -9 0 -22 7
-20 35 10 29 31 32 54 8 54 -17 1 -17 1 0 14 18 14 25 42 7 31 -5 -3 -10 3
-10 14 0 11 5 23 10 26 15 9 12 25 -4 25 -8 0 -18 5 -22 12 -4 6 -3 8 3 5 6
-4 16 0 23 8 10 12 16 13 26 4 16 -13 19 -39 4 -39 -12 0 -1 -53 12 -58 11 -5
10 -42 -2 -42 -16 0 -12 -40 5 -57 14 -14 18 -14 35 2 23 20 26 51 8 58 -9 3
-7 9 7 20 19 15 20 14 25 -26 3 -26 10 -41 18 -40 6 2 12 -5 12 -15 0 -14 4
-12 20 8 21 27 26 60 10 60 -16 0 -12 27 5 34 9 3 15 18 15 36 0 20 -5 30 -15
30 -20 0 -19 13 4 51 18 30 19 30 26 9 5 -16 10 -18 20 -10 7 6 20 8 29 4 13
-5 16 1 16 29 0 32 14 56 26 45 7 -7 -27 -98 -37 -98 -5 0 -9 5 -9 10 0 6 -4
10 -10 10 -5 0 -10 -7 -10 -15 0 -8 -7 -15 -15 -15 -19 0 -19 -5 1 -35 14 -21
14 -24 -3 -34 -16 -9 -16 -12 -3 -22 11 -8 12 -12 3 -16 -15 -5 -18 -43 -4
-43 9 0 24 42 26 75 0 11 6 29 13 40 11 18 12 16 10 -15 -4 -45 9 -52 30 -17
15 24 15 29 2 37 -12 7 -12 12 4 29 24 27 36 18 36 -25 0 -21 6 -37 15 -40 8
-4 12 -10 9 -16 -3 -5 3 -12 14 -15 11 -3 23 -16 27 -30 6 -24 7 -25 25 -8 22
20 27 55 9 55 -8 0 -8 4 -1 13 15 18 22 89 11 103 -6 8 -4 14 6 17 15 6 18 57
3 57 -13 0 -48 43 -42 52 3 4 -2 8 -10 8 -21 0 -46 -27 -69 -70 -10 -19 -15
-26 -11 -15 4 11 6 28 6 38 0 10 35 54 78 99 65 66 82 79 94 69 8 -6 12 -21 9
-31 -5 -19 7 -26 32 -20 6 2 19 2 31 2 13 -1 26 8 34 22 14 27 53 48 74 40 8
-3 18 -19 21 -35 6 -27 10 -29 54 -29 57 0 86 23 76 63 -6 21 -13 25 -60 30
-30 3 -68 13 -84 23 -29 17 -32 17 -66 1 -39 -18 -61 -23 -32 -6 9 5 17 17 17
26 0 13 -3 13 -15 3 -12 -10 -16 -9 -21 4 -3 9 -12 16 -19 16 -7 0 -12 6 -12
13 1 6 -2 41 -7 76 l-8 65 -30 -60 c-16 -32 -41 -74 -55 -92 -40 -53 -150
-138 -232 -180 -98 -50 -162 -66 -75 -19 91 50 153 98 231 180 71 75 128 171
121 204 -3 13 -10 4 -25 -29 -49 -108 -222 -290 -317 -334 -149 -68 -366 -89
-476 -46 l-55 21 55 -7 c99 -12 261 -7 340 11 104 25 186 70 277 153 136 124
211 264 174 322 -5 9 -15 -4 -31 -45 -25 -62 -36 -74 -57 -66 -20 8 -16 35 5
31 28 -6 54 90 46 174 -4 37 -10 65 -15 62 -5 -3 -9 2 -9 10 0 8 4 17 9 20 14
9 24 96 12 110 -6 7 -8 24 -5 39 5 31 -19 97 -36 97 -6 0 -9 4 -5 9 3 5 -3 17
-12 27 -16 16 -16 16 7 10 24 -7 24 -6 -5 18 -26 22 -31 23 -45 11 -11 -10
-20 -11 -26 -5 -6 6 -10 3 -10 -10 0 -13 7 -20 19 -20 10 0 15 -4 12 -10 -3
-5 -1 -10 6 -10 7 0 10 -2 8 -5 -3 -2 -25 3 -49 11 -25 9 -46 11 -48 6 -3 -10
-60 -3 -68 9 -3 5 -14 9 -26 9 -17 0 -18 2 -8 15 19 23 5 29 -16 8z m226 -8
c0 -8 -4 -15 -10 -15 -5 0 -7 7 -4 15 4 8 8 15 10 15 2 0 4 -7 4 -15z m-35
-311 c-20 -37 -39 -36 -60 6 -13 25 -13 29 0 34 8 3 22 3 30 0 9 -4 18 1 21
11 7 16 8 16 17 -1 7 -12 5 -26 -8 -50z m-15 -154 c0 -5 -2 -10 -4 -10 -3 0
-8 5 -11 10 -3 6 -1 10 4 10 6 0 11 -4 11 -10z m-30 -140 c0 -5 -2 -10 -4 -10
-3 0 -8 5 -11 10 -3 6 -1 10 4 10 6 0 11 -4 11 -10z m-30 -55 c0 -9 -9 -15
-21 -15 -18 0 -19 2 -9 15 7 8 16 15 21 15 5 0 9 -7 9 -15z m0 -35 c0 -13 -11
-13 -30 0 -12 8 -11 10 8 10 12 0 22 -4 22 -10z m-60 -23 c-27 -15 -36 -14
-25 2 3 6 16 11 28 11 21 0 21 -1 -3 -13z m-681 -101 c87 -71 78 -83 -25 -35
-40 19 -74 68 -74 106 0 15 2 14 19 -3 10 -10 46 -41 80 -68z m-243 -487 c2
-305 7 -609 10 -675 4 -81 2 -129 -5 -142 -7 -14 -8 -23 -1 -27 7 -4 7 -12 0
-25 -13 -24 -13 -33 0 -25 6 3 10 2 10 -4 0 -5 -4 -13 -10 -16 -5 -3 -10 -12
-10 -18 0 -7 4 -6 10 3 6 10 8 2 7 -27 -1 -23 -5 -39 -9 -36 -13 7 -9 -32 5
-46 10 -11 10 -13 0 -7 -8 4 -13 1 -13 -8 0 -9 5 -16 10 -16 6 0 10 -5 10 -11
0 -5 -4 -8 -9 -5 -13 9 -20 -45 -21 -174 -2 -142 -1 -140 -12 -140 -9 0 -4
1428 7 1743 5 119 10 215 12 213 2 -2 6 -253 9 -557z m1174 215 c0 -8 -4 -12
-10 -9 -5 3 -10 13 -10 21 0 8 5 12 10 9 6 -3 10 -13 10 -21z m-1596 -3 c3 -5
-1 -11 -9 -15 -9 -3 -15 0 -15 9 0 16 16 20 24 6z m2396 -11 c0 -5 6 -7 13 -5
6 3 18 1 26 -4 12 -8 12 -12 -2 -25 -8 -9 -20 -16 -26 -16 -6 0 -11 -4 -11 -9
0 -4 -10 -7 -22 -6 -13 1 -32 3 -43 4 -18 1 -18 3 7 26 15 14 32 25 38 25 6 0
8 5 5 10 -3 6 -1 10 4 10 6 0 11 -4 11 -10z m-860 -22 c0 -16 -3 -19 -11 -11
-6 6 -8 16 -5 22 11 17 16 13 16 -11z m1020 12 c13 -9 13 -11 0 -20 -20 -13
-60 -13 -60 0 0 6 -3 9 -7 9 -20 -3 -26 2 -13 11 19 13 61 12 80 0z m-2707
-30 c-5 -20 -33 -29 -33 -10 0 7 25 27 37 30 0 0 -1 -9 -4 -20z m1155 -45 c-5
-22 -10 -40 -11 -41 -1 0 -10 8 -19 18 -15 15 -15 18 -3 18 18 0 20 36 3 43
-7 2 -1 4 13 3 25 -1 25 -3 17 -41z m292 23 c0 -7 -5 -20 -10 -28 -8 -13 -10
-12 -10 3 0 10 -4 15 -10 12 -5 -3 -10 -2 -10 4 0 9 15 18 33 20 4 1 7 -5 7
-11z m987 -33 c-7 -14 -15 -25 -19 -25 -5 0 -8 -6 -8 -14 0 -15 -21 -27 -59
-33 -24 -4 -24 -4 -6 23 48 73 121 112 92 49z m-970 -47 c-3 -7 -5 -2 -5 12 0
14 2 19 5 13 2 -7 2 -19 0 -25z m-1597 2 c0 -13 -5 -18 -15 -14 -11 5 -12 9
-2 20 16 18 17 17 17 -6z m1310 -9 c0 -6 -4 -13 -10 -16 -5 -3 -10 1 -10 9 0
9 5 16 10 16 6 0 10 -4 10 -9z m-1400 -105 c0 -8 -7 -16 -15 -20 -12 -4 -13
-2 -2 14 14 24 17 25 17 6z m-55 -136 c-6 -10 -45 -9 -45 1 0 9 32 17 43 12 4
-3 5 -8 2 -13z m515 10 c0 -5 -5 -10 -11 -10 -5 0 -7 5 -4 10 3 6 8 10 11 10
2 0 4 -4 4 -10z m-576 -192 c-6 -19 -7 -19 -16 -4 -5 9 -6 26 -2 38 6 19 7 19
16 4 5 -9 6 -26 2 -38z m2416 -17 c13 -33 7 -53 -15 -44 -8 3 -15 -1 -15 -8 0
-7 -3 -9 -7 -6 -3 4 -13 1 -21 -5 -13 -11 -14 -8 -7 21 6 30 31 68 46 70 4 1
12 -12 19 -28z m-400 -8 c0 -7 4 -13 8 -13 7 0 32 -42 32 -53 0 -1 -27 -3 -60
-4 -63 -3 -68 0 -47 22 28 33 37 45 37 53 0 5 7 9 15 9 8 0 15 -6 15 -14z
m-2041 -16 c17 -22 25 -74 11 -82 -18 -11 -30 7 -36 53 -5 43 4 53 25 29z
m1899 -17 c12 -11 26 -20 31 -20 6 0 8 -7 4 -15 -3 -9 -7 -14 -10 -12 -2 3
-25 -2 -50 -9 -26 -8 -48 -13 -50 -11 -5 6 21 57 30 57 4 0 7 7 7 15 0 20 12
19 38 -5z m-1838 -36 c0 -24 -4 -33 -12 -28 -8 5 -9 0 -4 -17 16 -51 19 -74 8
-64 -11 11 -17 56 -14 118 2 48 22 40 22 -9z m2122 -12 c5 -2 8 -8 8 -13 0 -5
-10 -4 -22 2 -13 7 -25 10 -27 8 -9 -9 -24 30 -17 46 5 15 9 14 28 -11 13 -16
26 -30 30 -32z m112 22 c32 -33 33 -40 4 -41 -13 0 -35 -3 -50 -6 -15 -3 -30
-1 -33 4 -4 5 -1 9 4 9 6 0 11 8 11 18 0 18 18 42 31 42 3 0 18 -12 33 -26z
m-538 2 c8 -8 14 -19 14 -24 0 -6 6 -12 13 -15 17 -6 7 -15 -26 -21 -84 -18
-82 -18 -69 -5 6 7 12 19 12 26 0 11 28 50 38 52 2 1 10 -5 18 -13z m825 -39
c-8 -8 -14 -7 -23 2 -10 11 -10 13 0 7 8 -5 12 0 12 16 1 21 1 22 11 5 8 -14
8 -22 0 -30z m-955 3 c8 0 13 -3 13 -7 -4 -22 2 -33 14 -28 6 4 3 -1 -7 -9
-11 -9 -29 -16 -40 -17 -12 0 -29 -2 -38 -4 -10 -2 -20 1 -24 6 -3 5 0 9 6 9
6 0 14 8 17 17 10 26 37 55 41 43 2 -5 10 -10 18 -10z m818 12 c2 -4 -4 -13
-15 -20 -21 -13 -22 -12 -13 12 7 17 20 21 28 8z m67 -7 c5 4 6 -1 2 -10 -5
-13 -7 -14 -14 -3 -5 7 -8 18 -8 23 0 6 3 4 6 -3 2 -6 9 -10 14 -7z m-1031 -8
c0 -7 9 -23 19 -34 30 -32 21 -34 -69 -19 -14 3 -26 5 -27 5 0 1 11 15 25 31
28 31 52 39 52 17z m-111 -41 c-11 -12 -29 2 -29 25 0 18 1 18 19 2 10 -10 15
-22 10 -27z m697 11 c-2 -15 -11 -22 -34 -24 -16 -2 -33 0 -36 6 -10 16 5 40
27 43 34 6 47 -2 43 -25z m394 18 c0 -2 -9 -9 -20 -15 -16 -9 -18 -8 -14 5 5
13 34 22 34 10z m-552 -32 c-2 -22 -9 -27 -36 -31 -28 -3 -33 0 -30 15 3 19
34 42 56 43 9 0 12 -10 10 -27z m-1764 -19 c3 -8 1 -14 -5 -14 -6 0 -7 -6 -3
-12 4 -7 -2 -5 -14 5 -11 11 -18 25 -15 32 6 16 29 9 37 -11z m2155 7 l21 -19
-22 -6 c-13 -3 -26 -6 -29 -6 -10 0 -20 31 -13 41 8 13 19 11 43 -10z m-536
-37 c-3 -8 -8 -13 -10 -10 -3 3 -16 1 -29 -4 -21 -8 -24 -7 -24 14 0 30 40 51
57 29 6 -8 9 -21 6 -29z m732 16 c3 -5 3 -20 0 -33 -5 -19 -12 -23 -27 -19
-11 2 -22 11 -25 19 -4 11 -8 12 -13 3 -6 -9 -9 -9 -15 0 -4 7 1 13 14 17 12
3 21 9 21 14 0 12 37 11 45 -1z m-873 -35 c2 -15 -3 -20 -22 -20 -33 -1 -44
26 -16 42 23 13 33 8 38 -22z m-1432 7 c0 -7 -4 -11 -9 -7 -5 3 -11 -5 -13
-17 -3 -19 -5 -17 -9 9 -4 26 -2 31 13 30 10 -1 18 -7 18 -15z m1298 -11 c3
-16 -2 -21 -19 -21 -18 0 -20 2 -9 16 8 8 9 14 4 13 -19 -3 -34 1 -34 10 0 5
12 8 28 7 19 -2 28 -10 30 -25z m570 18 c3 -2 19 -6 33 -8 5 0 7 -6 4 -11 -4
-6 -11 -8 -16 -4 -5 3 -8 1 -7 -5 2 -5 -6 -16 -16 -24 -18 -13 -24 -12 -53 7
-18 11 -33 24 -33 27 0 17 71 32 88 18z m-1943 -26 c44 -47 48 -60 20 -65 -13
-3 -28 -2 -33 1 -25 17 -44 91 -22 91 5 0 21 -12 35 -27z m1825 5 c0 -10 -40
-51 -40 -40 0 4 -4 1 -9 -6 -7 -11 -15 -11 -45 2 -32 13 -36 18 -24 29 7 8 20
16 28 19 25 8 90 6 90 -4z m274 -9 c11 -10 -11 -39 -29 -39 -19 0 -57 38 -50
50 7 12 63 4 79 -11z m178 -9 c5 -32 -7 -42 -14 -12 -4 16 0 42 7 42 1 0 5
-13 7 -30z m-50 3 c7 -9 7 -13 -1 -13 -6 0 -11 -6 -11 -14 0 -23 -29 -27 -50
-6 -11 11 -20 17 -20 14 0 -3 -5 -2 -11 2 -16 9 29 33 59 31 13 -1 28 -7 34
-14z m-552 -12 c-1 -4 -10 -17 -21 -30 -25 -30 -58 -34 -84 -9 -19 19 -19 19
3 25 12 3 22 9 22 15 0 5 18 8 40 6 22 -1 40 -4 40 -7z m-1250 -36 c0 -7 5
-15 12 -17 17 -6 0 -28 -23 -28 -15 0 -19 7 -19 35 0 26 3 33 15 29 8 -4 15
-12 15 -19z m1110 7 c0 -3 -12 -18 -26 -33 -24 -26 -64 -30 -64 -7 0 5 -4 6
-10 3 -5 -3 -10 -1 -10 5 0 7 14 17 30 23 17 6 30 14 30 18 0 3 11 4 25 1 14
-2 25 -7 25 -10z m-280 -2 c0 -5 -4 -10 -10 -10 -5 0 -10 5 -10 10 0 6 5 10
10 10 6 0 10 -4 10 -10z m113 -9 c25 -10 26 -13 14 -25 -23 -23 -67 -25 -67
-2 0 8 -8 17 -17 20 -14 6 -15 9 -4 16 16 9 32 7 74 -9z m-863 -15 c0 -11 -19
-15 -25 -6 -3 5 1 10 9 10 9 0 16 -2 16 -4z m-83 -71 c0 -8 -4 -15 -9 -15 -10
0 -11 14 -1 23 9 10 10 9 10 -8z m1944 -35 c10 0 19 -4 19 -10 0 -5 7 -10 15
-10 8 0 15 -7 15 -15 0 -8 4 -15 10 -15 10 0 31 -67 36 -117 2 -26 -1 -33 -14
-33 -14 -1 -12 -5 7 -21 19 -15 25 -32 29 -74 3 -37 1 -55 -7 -55 -6 0 -11 5
-11 10 0 6 -7 10 -15 10 -8 0 -15 -9 -15 -21 0 -11 -4 -17 -10 -14 -6 4 -10
-5 -10 -20 0 -14 7 -28 15 -31 19 -8 19 -31 -1 -51 -9 -9 -13 -25 -10 -38 4
-17 1 -21 -16 -20 -25 2 -35 40 -13 49 20 7 19 26 0 26 -9 0 -18 7 -21 15 -4
8 -10 15 -15 15 -5 0 -9 -7 -9 -15 0 -8 5 -15 10 -15 6 0 10 -5 10 -11 0 -8
-5 -7 -15 1 -19 16 -30 7 -20 -17 5 -10 7 -21 7 -25 -1 -5 2 -8 8 -8 5 0 10
-4 10 -10 0 -5 -7 -10 -16 -10 -14 0 -14 -2 -3 -16 12 -14 14 -14 26 2 7 10
13 13 13 8 0 -6 -9 -20 -20 -32 -27 -28 -26 -60 3 -71 15 -6 27 -4 40 7 17 15
24 63 10 61 -20 -3 -23 2 -9 16 22 22 59 24 64 3 2 -12 -3 -18 -13 -18 -23 0
-16 -39 11 -56 18 -12 23 -11 42 6 l21 20 10 -37 c15 -58 20 -83 25 -145 l6
-58 -23 23 -22 22 -9 -43 c-5 -23 -13 -42 -17 -42 -5 0 -9 -9 -9 -20 0 -11 -4
-20 -10 -20 -5 0 -10 9 -10 20 0 11 -6 20 -13 20 -6 0 -18 13 -25 29 -9 20
-20 29 -37 29 -20 0 -26 -7 -31 -35 -4 -23 -11 -32 -20 -29 -7 3 -15 -4 -17
-17 l-4 -22 -8 23 c-4 12 -11 22 -15 22 -5 0 -14 16 -20 36 -8 24 -15 33 -22
26 -6 -6 -16 -8 -24 -5 -8 3 -16 -7 -22 -29 -5 -18 -14 -32 -21 -31 -6 2 -11
-7 -11 -20 0 -22 0 -22 -20 3 -11 14 -20 31 -20 38 0 16 -19 36 -42 45 -17 6
-31 -18 -37 -64 0 -5 -5 -8 -10 -4 -5 3 -12 -5 -14 -17 l-4 -23 -8 23 c-4 12
-11 22 -15 22 -5 0 -11 18 -15 40 -6 33 -10 39 -21 30 -7 -7 -18 -9 -23 -6 -6
4 -15 -12 -21 -34 -6 -22 -15 -38 -19 -35 -5 2 -12 -5 -16 -18 -7 -21 -7 -21
-12 -2 -3 11 -12 25 -21 31 -8 6 -12 16 -8 22 4 7 2 12 -3 12 -6 0 -11 6 -11
13 0 7 -9 13 -21 13 -15 0 -25 -11 -36 -38 -8 -21 -19 -35 -24 -32 -5 3 -9 -3
-9 -14 0 -10 -3 -22 -7 -25 -8 -9 -37 39 -46 75 -10 39 -46 34 -64 -9 -7 -18
-17 -33 -22 -33 -5 0 -12 -10 -16 -22 -7 -22 -7 -22 -12 -3 -3 11 -11 24 -18
30 -7 5 -15 22 -19 36 -8 37 -44 32 -62 -9 -7 -18 -20 -35 -29 -38 -8 -3 -15
-12 -15 -20 0 -8 -4 -14 -10 -14 -5 0 -10 7 -10 15 0 8 -4 15 -10 15 -5 0 -10
7 -10 15 0 8 -4 15 -10 15 -5 0 -10 9 -10 20 0 22 -1 23 -24 14 -9 -3 -16 -12
-16 -20 0 -8 -4 -14 -10 -14 -5 0 -10 -7 -10 -15 0 -9 -7 -18 -15 -21 -8 -4
-15 -12 -15 -20 0 -23 -15 -16 -17 9 -1 12 -5 49 -10 82 -5 33 -5 76 -1 95 4
19 5 50 2 69 -8 51 4 111 22 104 18 -7 14 -49 -4 -46 -7 2 -12 -8 -12 -26 0
-23 5 -30 25 -33 15 -3 30 1 40 12 17 19 20 50 5 50 -17 0 -10 14 16 34 l26
19 -6 -41 c-4 -34 -2 -42 17 -55 30 -19 67 -3 67 30 0 14 -6 23 -15 23 -19 0
-19 14 -2 32 19 19 28 68 12 68 -7 0 -15 11 -17 25 -3 14 -1 23 6 22 6 -1 12
10 14 26 2 20 -1 27 -13 27 -9 0 -13 5 -10 10 3 6 -1 10 -10 10 -9 0 -13 -4
-10 -10 6 -9 -8 -14 -27 -11 -5 0 -8 -22 -8 -49 0 -28 -4 -50 -10 -50 -5 0
-10 7 -10 16 0 8 -4 13 -9 9 -5 -3 -12 -1 -15 4 -3 5 1 11 9 15 8 3 15 17 15
31 0 15 -4 24 -10 20 -6 -3 -13 1 -16 9 -3 9 -10 16 -16 16 -5 0 -7 -4 -3 -9
3 -5 -4 -12 -15 -16 -21 -7 -30 -55 -10 -55 13 0 13 -37 -1 -46 -6 -3 -15 -2
-19 2 -5 5 -11 108 -12 229 -3 204 -2 220 15 219 34 -3 37 -4 37 -19 0 -9 7
-18 15 -21 8 -4 15 -12 15 -20 0 -22 15 -16 38 16 25 33 43 37 66 15 8 -8 19
-15 25 -15 5 0 11 -7 13 -16 2 -11 12 -3 33 25 17 22 36 43 42 45 7 3 28 -10
46 -29 l33 -34 29 44 c32 48 45 53 69 30 8 -8 19 -15 25 -15 6 0 11 -7 11 -15
0 -8 5 -15 10 -15 6 0 10 7 10 15 0 8 5 15 10 15 6 0 10 9 10 21 0 11 4 18 9
14 5 -3 12 -1 16 5 10 17 53 7 59 -13 2 -11 9 -16 15 -12 6 3 11 -1 11 -9 0
-28 19 -27 35 2 25 42 50 55 75 40 11 -7 20 -18 20 -25 0 -7 5 -13 10 -13 6 0
10 -7 10 -15 0 -25 24 -17 45 15 11 16 23 30 27 30 12 0 48 -43 48 -56 0 -29
21 -22 45 16 14 22 30 40 35 40 5 0 17 -17 26 -37 l17 -38 6 40 c8 46 22 76
29 57 2 -7 12 -12 23 -12z m-1864 -50 c-4 -28 -15 -36 -23 -16 -3 9 -10 13
-15 10 -5 -3 -9 2 -9 10 0 10 9 16 25 16 19 0 24 -5 22 -20z m-80 -12 c-3 -8
-6 -5 -6 6 -1 11 2 17 5 13 3 -3 4 -12 1 -19z m-57 -19 c0 -5 5 -7 10 -4 6 4
10 -5 10 -19 0 -14 -5 -26 -11 -26 -5 0 -7 5 -4 10 3 6 2 10 -3 10 -5 0 -12 9
-15 20 -3 11 -1 20 4 20 5 0 9 -5 9 -11z m-40 -122 c0 -6 -10 -21 -21 -33 -17
-18 -24 -20 -33 -11 -26 27 -26 45 2 55 30 10 52 6 52 -11z m143 -39 c42 -40
47 -61 47 -197 0 -122 -1 -131 -19 -131 -11 0 -22 6 -24 13 -3 7 -6 5 -6 -5
-1 -20 -5 -21 -38 -12 -19 5 -21 11 -17 43 7 54 15 171 14 211 0 39 9 100 15
100 2 0 15 -10 28 -22z m-272 -35 c13 -16 12 -17 -3 -5 -13 10 -17 10 -21 0
-4 -8 -6 -7 -6 5 -1 9 3 17 8 17 5 0 15 -8 22 -17z m99 -223 c0 -5 -4 -10 -10
-10 -5 0 -10 5 -10 10 0 6 5 10 10 10 6 0 10 -4 10 -10z m45 -12 c16 -7 24
-17 20 -26 -3 -7 -5 -19 -6 -25 0 -7 -4 -3 -8 8 -5 11 -14 20 -21 20 -7 0 -14
8 -16 18 -3 20 -2 20 31 5z m996 -41 c-8 -8 -11 -5 -11 9 0 27 14 41 18 19 2
-9 -1 -22 -7 -28z m59 36 c0 -5 -5 -15 -10 -23 -7 -12 -9 -10 -7 8 1 19 17 33
17 15z m-1018 -65 c-6 -6 -7 0 -4 19 5 21 7 23 10 9 2 -10 0 -22 -6 -28z
m2147 15 c-1 -17 -3 -21 -6 -10 -2 9 -9 17 -14 17 -6 0 -7 5 -4 10 12 19 25
10 24 -17z m-139 -17 c0 -3 -4 -8 -10 -11 -5 -3 -10 -1 -10 4 0 6 5 11 10 11
6 0 10 -2 10 -4z m-2120 -36 c0 -5 -7 -7 -15 -4 -8 4 -12 10 -9 15 6 11 24 2
24 -11z m226 -16 c-3 -7 -1 -16 4 -19 14 -9 13 -95 -1 -95 -7 0 -9 12 -5 34 5
28 2 39 -15 55 -24 22 -20 54 6 45 9 -4 14 -13 11 -20z m421 -101 c-2 -16 -4
-3 -4 27 0 30 2 43 4 28 2 -16 2 -40 0 -55z m-678 -9 c-17 -21 -3 -57 31 -76
17 -10 28 -22 25 -28 -3 -5 -1 -10 6 -10 8 0 10 -13 6 -42 -3 -24 -2 -52 3
-63 4 -11 3 -31 -2 -44 -6 -17 -5 -27 4 -33 10 -6 9 -8 -3 -8 -27 0 -42 25
-29 49 10 19 7 25 -12 22 -15 -2 -36 56 -48 131 -14 86 -8 131 15 121 12 -4
13 -9 4 -19z m251 -49 c23 -26 28 -154 4 -135 -12 10 -14 8 -14 -16 l-1 -29
-23 27 c-13 15 -26 25 -29 22 -6 -6 -27 53 -27 78 0 22 25 75 49 102 15 18 16
18 19 -5 2 -13 12 -33 22 -44z m427 3 c-3 -8 -6 -5 -6 6 -1 11 2 17 5 13 3 -3
4 -12 1 -19z m-1257 -18 c0 -5 -4 -10 -10 -10 -5 0 -10 5 -10 10 0 6 5 10 10
10 6 0 10 -4 10 -10z m120 -30 c0 -5 -2 -10 -4 -10 -3 0 -8 5 -11 10 -3 6 -1
10 4 10 6 0 11 -4 11 -10z m158 -25 c-3 -3 -9 2 -12 12 -6 14 -5 15 5 6 7 -7
10 -15 7 -18z m761 -122 c-1 -38 -4 -57 -7 -43 -4 24 -5 24 -18 -10 l-14 -35
6 50 c3 28 9 54 15 60 5 5 9 17 9 27 0 10 2 18 5 18 3 0 4 -30 4 -67z m971
-53 c0 -5 -4 -10 -10 -10 -5 0 -10 5 -10 10 0 6 5 10 10 10 6 0 10 -4 10 -10z
m590 0 c0 -5 -2 -10 -4 -10 -3 0 -8 5 -11 10 -3 6 -1 10 4 10 6 0 11 -4 11
-10z m-1605 -126 c-18 -63 -29 -69 -15 -9 21 93 23 100 27 83 3 -10 -3 -43
-12 -74z m132 4 c-3 -7 -5 -2 -5 12 0 14 2 19 5 13 2 -7 2 -19 0 -25z m-727
-28 c0 -5 -5 -10 -11 -10 -5 0 -7 5 -4 10 3 6 8 10 11 10 2 0 4 -4 4 -10z
m717 -27 c-3 -10 -5 -4 -5 12 0 17 2 24 5 18 2 -7 2 -21 0 -30z m-627 12 c-7
-8 -17 -12 -22 -9 -6 4 -5 10 3 15 22 14 33 10 19 -6z"/>
<path d="M2918 1092 c-20 -4 -23 -17 -7 -28 12 -7 33 10 28 23 -2 5 -12 7 -21
5z"/>
<path d="M2483 1076 c5 -16 27 -19 27 -3 0 7 -7 14 -15 14 -9 0 -14 -5 -12
-11z"/>
<path d="M2576 1075 c-3 -9 0 -15 9 -15 16 0 20 16 6 24 -5 3 -11 -1 -15 -9z"/>
<path d="M2291 1071 c-8 -6 -9 -11 -3 -15 6 -3 14 -1 17 5 9 14 2 20 -14 10z"/>
<path d="M2380 1070 c0 -5 7 -10 15 -10 8 0 15 5 15 10 0 6 -7 10 -15 10 -8 0
-15 -4 -15 -10z"/>
<path d="M2430 1060 c0 -13 18 -22 24 -11 3 5 -1 11 -9 15 -8 3 -15 1 -15 -4z"/>
<path d="M2660 1060 c0 -5 7 -10 15 -10 8 0 15 5 15 10 0 6 -7 10 -15 10 -8 0
-15 -4 -15 -10z"/>
<path d="M2825 1060 c3 -5 8 -10 11 -10 2 0 4 5 4 10 0 6 -5 10 -11 10 -5 0
-7 -4 -4 -10z"/>
<path d="M2190 1050 c0 -5 5 -10 10 -10 6 0 10 5 10 10 0 6 -4 10 -10 10 -5 0
-10 -4 -10 -10z"/>
<path d="M2335 1050 c3 -5 10 -10 16 -10 5 0 9 5 9 10 0 6 -7 10 -16 10 -8 0
-12 -4 -9 -10z"/>
<path d="M2535 1050 c3 -5 10 -10 16 -10 5 0 9 5 9 10 0 6 -7 10 -16 10 -8 0
-12 -4 -9 -10z"/>
<path d="M2616 1046 c3 -9 11 -16 16 -16 13 0 5 23 -10 28 -7 2 -10 -2 -6 -12z"/>
<path d="M2860 1050 c0 -5 4 -10 9 -10 6 0 13 5 16 10 3 6 -1 10 -9 10 -9 0
-16 -4 -16 -10z"/>
<path d="M2095 1041 c-3 -5 -1 -12 5 -16 5 -3 10 1 10 9 0 18 -6 21 -15 7z"/>
<path d="M2702 1038 c2 -5 8 -9 13 -9 5 0 11 4 13 9 1 5 -4 9 -13 9 -9 0 -14
-4 -13 -9z"/>
<path d="M1790 1023 c0 -7 7 -13 15 -13 8 0 15 6 15 13 0 8 -7 14 -15 14 -8 0
-15 -6 -15 -14z"/>
<path d="M2003 1033 c-15 -5 -17 -23 -4 -23 5 0 11 7 15 15 3 8 4 15 3 14 -1
0 -8 -3 -14 -6z"/>
<path d="M1895 1020 c3 -5 10 -10 16 -10 5 0 9 5 9 10 0 6 -7 10 -16 10 -8 0
-12 -4 -9 -10z"/>
<path d="M2040 1008 c0 -4 4 -8 9 -8 6 0 12 4 15 8 3 5 -1 9 -9 9 -8 0 -15 -4
-15 -9z"/>
<path d="M1845 1000 c4 -6 11 -8 16 -5 14 9 11 15 -7 15 -8 0 -12 -5 -9 -10z"/>
<path d="M2319 945 c-1 -5 -1 -14 0 -18 1 -4 -6 -10 -14 -13 -8 -4 -15 -17
-15 -30 0 -26 7 -29 30 -14 9 6 17 5 21 -2 4 -6 12 -7 18 -4 13 9 15 57 2 54
-5 -2 -17 6 -25 17 -8 11 -16 16 -17 10z"/>
<path d="M2420 935 c0 -8 -7 -15 -15 -15 -9 0 -15 -9 -15 -24 0 -13 7 -26 15
-30 22 -8 18 -43 -6 -49 -17 -5 -19 -9 -10 -25 6 -11 8 -22 4 -25 -3 -4 2 -9
11 -13 20 -8 21 -44 1 -44 -24 0 -19 -47 7 -61 16 -9 23 -9 26 0 2 6 10 11 18
11 20 0 18 46 -3 55 -17 7 -16 8 2 15 32 14 35 12 35 -26 0 -44 22 -69 49 -55
25 14 33 49 14 60 -12 6 -13 12 -5 27 7 11 12 13 12 6 0 -7 4 -11 8 -8 14 8
39 -13 25 -21 -11 -8 -16 -27 -14 -50 1 -15 33 -25 55 -17 19 7 22 60 4 67 -8
3 -3 9 12 15 14 5 28 8 33 5 11 -6 9 -33 -3 -33 -15 0 -12 -47 4 -53 8 -3 24
-3 35 0 24 6 28 39 8 57 -7 6 -10 10 -8 9 2 -1 12 2 22 8 17 9 19 6 19 -27 0
-41 22 -64 52 -56 23 6 25 57 2 66 -16 6 -16 8 0 24 16 19 23 88 7 78 -15 -10
-19 30 -5 49 19 26 18 56 -1 49 -9 -4 -15 0 -15 10 0 9 -4 16 -10 16 -5 0 -10
-7 -10 -15 0 -10 -11 -15 -35 -15 -24 0 -35 5 -35 15 0 8 -4 15 -10 15 -5 0
-10 -4 -10 -10 0 -5 -13 -10 -30 -10 -20 0 -30 5 -30 15 0 17 -16 20 -25 5
-10 -16 -65 -12 -65 5 0 8 -7 15 -15 15 -8 0 -15 -7 -15 -15 0 -8 -4 -15 -10
-15 -5 0 -10 -22 -10 -50 0 -53 -3 -58 -26 -36 -12 12 -12 18 1 43 20 37 19
43 -5 43 -11 0 -20 7 -20 15 0 8 -4 15 -10 15 -5 0 -10 -7 -10 -15z m171 -93
c-6 -2 -11 -11 -12 -20 0 -11 -2 -12 -6 -4 -2 6 -11 12 -19 12 -19 0 -18 16 3
44 l17 23 14 -26 c9 -17 10 -27 3 -29z m88 8 c5 0 9 -9 8 -19 0 -11 -5 -17
-10 -14 -12 8 -36 -29 -29 -47 4 -12 2 -13 -9 -2 -11 10 -11 16 -1 32 15 25
16 43 1 34 -7 -4 -9 -2 -5 7 3 8 9 23 13 33 6 19 7 18 14 -2 5 -12 13 -22 18
-22z m74 -21 c-5 -16 -7 -17 -20 -3 -12 12 -13 17 -2 30 15 18 29 1 22 -27z
m-153 -46 c0 -10 -4 -14 -8 -8 -4 6 -11 13 -16 18 -5 4 -2 7 7 7 10 0 17 -8
17 -17z m180 -8 c0 -14 -4 -25 -10 -25 -11 0 -14 33 -3 43 11 11 13 8 13 -18z"/>
<path d="M2859 938 c-1 -5 -2 -12 -3 -17 0 -5 -4 -13 -8 -17 -11 -10 -10 -44
1 -44 5 0 12 6 15 13 3 8 8 6 17 -7 9 -15 13 -16 20 -5 12 20 11 49 -2 49 -7
0 -18 8 -25 18 -7 9 -14 14 -15 10z"/>
<path d="M2210 915 c0 -9 -6 -18 -13 -21 -8 -3 -12 -16 -10 -32 3 -15 0 -38
-6 -52 -7 -19 -10 -20 -10 -7 -1 10 -5 16 -10 12 -5 -3 -13 0 -17 6 -4 6 1 16
10 21 21 12 22 60 1 52 -9 -4 -15 0 -15 10 0 9 -6 13 -15 10 -8 -4 -12 -10 -9
-15 3 -5 -2 -12 -10 -15 -20 -7 -21 -43 -2 -50 8 -3 11 -15 8 -29 -2 -14 -8
-22 -13 -19 -5 3 -9 -9 -9 -25 0 -25 -4 -30 -20 -28 -31 5 -35 15 -15 37 18
20 18 21 -1 34 -18 14 -18 15 -1 21 21 9 23 55 2 55 -8 0 -15 7 -15 15 0 22
-17 18 -23 -6 -3 -12 -10 -18 -16 -14 -7 4 -11 -4 -11 -19 0 -29 18 -44 26
-22 3 9 10 14 15 11 4 -3 1 -14 -8 -25 -9 -10 -20 -17 -25 -14 -4 3 -8 -2 -8
-10 0 -8 5 -18 10 -21 6 -4 8 -11 5 -16 -4 -5 0 -9 7 -9 8 -1 6 -6 -6 -15 -16
-12 -17 -18 -8 -27 15 -15 16 -32 2 -23 -6 4 -10 -7 -10 -24 0 -21 5 -31 15
-31 8 0 15 -4 15 -9 0 -5 11 -4 25 2 29 14 34 51 8 61 -14 6 -12 10 12 26 27
18 31 18 45 4 13 -14 13 -17 -2 -28 -24 -18 -23 -43 2 -56 23 -13 43 1 54 38
6 16 3 22 -8 22 -22 0 -20 13 3 27 25 15 31 8 31 -38 0 -25 5 -39 16 -43 18
-7 53 1 55 12 7 35 4 52 -7 52 -19 0 -18 36 1 44 9 3 15 18 15 36 0 20 -5 30
-15 30 -16 0 -21 36 -6 42 5 2 12 15 16 30 5 21 3 26 -12 25 -10 -1 -17 4 -15
11 1 6 -5 12 -13 12 -8 0 -15 -7 -15 -15z m-170 -125 c0 -5 -4 -10 -10 -10 -5
0 -10 5 -10 10 0 6 5 10 10 10 6 0 10 -4 10 -10z m170 -20 c0 -11 -4 -20 -10
-20 -5 0 -10 9 -10 20 0 11 5 20 10 20 6 0 10 -9 10 -20z m-50 -10 c0 -11 -4
-20 -10 -20 -5 0 -10 9 -10 20 0 11 5 20 10 20 6 0 10 -9 10 -20z m-120 -90
c0 -5 -5 -10 -11 -10 -5 0 -7 5 -4 10 3 6 8 10 11 10 2 0 4 -4 4 -10z"/>
<path d="M2314 845 c-4 -8 -13 -15 -21 -15 -11 0 -10 -6 6 -26 22 -27 20 -44
-4 -44 -20 0 -7 -30 14 -30 14 -1 14 -2 -1 -14 -44 -33 -6 -92 42 -66 28 15
25 47 -7 74 -18 15 -23 25 -15 30 7 4 12 1 12 -8 0 -9 7 -16 15 -16 8 0 15 7
15 15 0 8 -4 15 -10 15 -5 0 -10 9 -10 19 0 11 5 23 10 26 6 3 10 13 10 21 0
8 -5 12 -10 9 -6 -3 -13 1 -16 9 -8 20 -23 20 -30 1z m18 -27 c-7 -7 -12 -8
-12 -2 0 14 12 26 19 19 2 -3 -1 -11 -7 -17z m8 -128 c0 -5 -4 -10 -10 -10 -5
0 -10 5 -10 10 0 6 5 10 10 10 6 0 10 -4 10 -10z"/>
<path d="M2395 470 c-3 -5 -1 -10 4 -10 6 0 11 5 11 10 0 6 -2 10 -4 10 -3 0
-8 -4 -11 -10z"/>
<path d="M2982 460 c0 -14 2 -19 5 -12 2 6 2 18 0 25 -3 6 -5 1 -5 -13z"/>
<path d="M2246 461 c-4 -7 -5 -15 -2 -18 9 -9 19 4 14 18 -4 11 -6 11 -12 0z"/>
<path d="M2530 461 c0 -6 5 -13 10 -16 6 -3 10 1 10 9 0 9 -4 16 -10 16 -5 0
-10 -4 -10 -9z"/>
<path d="M2675 460 c-3 -5 -1 -10 4 -10 6 0 11 5 11 10 0 6 -2 10 -4 10 -3 0
-8 -4 -11 -10z"/>
<path d="M2820 460 c0 -5 5 -10 10 -10 6 0 10 5 10 10 0 6 -4 10 -10 10 -5 0
-10 -4 -10 -10z"/>
<path d="M1936 452 c-3 -6 -1 -14 5 -17 15 -10 25 3 12 16 -7 7 -13 7 -17 1z"/>
<path d="M1904 3386 c19 -16 19 -16 -2 -16 -14 0 -20 -5 -16 -14 4 -9 -9 -17
-42 -25 -26 -7 -56 -18 -66 -25 -11 -8 -28 -12 -39 -9 -10 3 -19 0 -19 -6 0
-11 32 -16 80 -13 34 2 92 -17 84 -29 -3 -5 5 -13 18 -18 21 -9 21 -10 3 -12
-33 -3 -79 2 -100 13 -15 7 -14 4 4 -10 13 -11 33 -17 45 -15 17 4 18 3 6 -6
-12 -8 -5 -11 30 -11 35 -1 41 -3 28 -11 -24 -13 -23 -39 1 -39 33 0 66 36 81
89 7 27 20 53 27 56 9 3 12 12 8 24 -3 12 0 23 8 28 13 8 37 45 37 58 0 3 -4
4 -9 0 -18 -11 -144 -14 -165 -4 -20 10 -20 10 -2 -5z m36 -108 c0 -16 -3 -19
-11 -11 -6 6 -8 16 -5 22 11 17 16 13 16 -11z"/>
<path d="M2335 3370 c3 -5 10 -10 16 -10 5 0 9 5 9 10 0 6 -7 10 -16 10 -8 0
-12 -4 -9 -10z"/>
<path d="M1426 3241 c-4 -7 -5 -15 -2 -18 9 -9 19 4 14 18 -4 11 -6 11 -12 0z"/>
<path d="M1894 3086 c-57 -32 -141 -147 -106 -146 4 0 38 28 76 61 47 41 75
59 87 56 15 -4 19 0 19 19 0 20 -5 24 -27 23 -16 -1 -37 -6 -49 -13z"/>
<path d="M2260 2630 c0 -5 5 -10 11 -10 5 0 7 5 4 10 -3 6 -8 10 -11 10 -2 0
-4 -4 -4 -10z"/>
<path d="M2190 2582 c6 -13 14 -21 18 -18 3 4 -2 14 -12 24 -18 16 -18 16 -6
-6z"/>
<path d="M4413 2500 c3 -11 1 -36 -3 -57 -17 -74 -19 -93 -9 -98 5 -4 9 -15 9
-25 0 -10 11 -31 25 -46 14 -15 25 -35 25 -45 0 -11 7 -19 16 -19 11 0 14 5 9
18 -14 34 -25 87 -25 128 0 38 -36 164 -47 164 -3 0 -3 -9 0 -20z"/>
<path d="M3019 2491 c24 -44 101 -69 98 -32 -1 20 -49 37 -70 24 -5 -3 -7 -1
-4 4 4 6 0 14 -9 17 -24 9 -26 8 -15 -13z"/>
<path d="M2929 2410 c-9 -5 -19 -21 -23 -34 -3 -14 -13 -23 -23 -22 -12 1 -22
-12 -32 -41 -10 -26 -21 -43 -31 -42 -10 0 -11 2 -2 6 6 2 12 15 12 28 0 23
-13 27 -37 12 -7 -5 -12 -22 -10 -39 1 -23 -3 -31 -16 -33 -13 -3 -16 1 -12
16 4 12 2 19 -6 19 -8 0 -7 6 4 18 17 19 13 62 -7 62 -28 0 -56 -14 -56 -26 0
-8 5 -14 10 -14 6 0 10 -4 10 -10 0 -5 -9 -10 -21 -10 -12 0 -19 -5 -16 -12 2
-7 9 -12 15 -11 5 1 8 -7 5 -18 -3 -12 -11 -18 -19 -15 -20 8 -17 -12 7 -45
11 -16 16 -29 10 -29 -6 0 -11 5 -11 10 0 6 -7 10 -15 10 -20 0 -19 -35 2 -59
15 -18 18 -18 40 -4 25 16 31 48 11 56 -16 5 -10 13 20 21 16 6 24 3 29 -10 4
-10 2 -19 -5 -22 -14 -4 -16 -38 -3 -46 11 -7 45 30 37 42 -3 5 2 16 11 23 14
12 15 11 9 -7 -9 -30 16 -38 38 -12 10 11 15 27 11 35 -7 20 14 67 37 82 23
14 24 1 3 -39 -8 -16 -13 -44 -11 -62 3 -28 7 -33 27 -30 43 5 76 52 47 66
-10 5 -10 7 1 12 32 15 51 44 45 69 -5 21 -3 25 15 25 14 0 23 8 27 25 8 31 4
36 -30 39 -18 2 -31 -5 -47 -25 -23 -31 -45 -39 -35 -14 3 8 1 15 -5 15 -6 0
-7 5 -4 10 4 6 11 7 17 4 10 -6 28 12 28 29 0 10 -32 8 -51 -3z m-17 -92 c-7
-7 -12 -8 -12 -2 0 14 12 26 19 19 2 -3 -1 -11 -7 -17z m-177 2 c3 -5 1 -10
-4 -10 -6 0 -11 5 -11 10 0 6 2 10 4 10 3 0 8 -4 11 -10z m146 -17 c-12 -20
-14 -14 -5 12 4 9 9 14 11 11 3 -2 0 -13 -6 -23z m89 13 c0 -2 -7 -7 -16 -10
-8 -3 -12 -2 -9 4 6 10 25 14 25 6z m-226 -95 c-9 -10 -26 18 -18 30 5 9 9 8
14 -7 4 -10 6 -21 4 -23z"/>
<path d="M2650 2329 c-8 -17 -23 -29 -42 -33 -28 -5 -30 -9 -24 -36 4 -22 1
-32 -9 -36 -17 -7 -21 -54 -5 -54 16 0 12 -30 -5 -36 -20 -8 -19 -33 1 -56 16
-17 18 -15 41 28 16 30 23 55 19 70 -4 14 0 37 9 53 8 17 12 37 9 46 -4 9 1
24 11 35 9 10 15 25 12 32 -3 8 -9 3 -17 -13z"/>
<path d="M3075 2340 c-3 -5 -3 -20 -1 -35 4 -21 2 -24 -13 -15 -15 7 -23 2
-44 -27 -20 -28 -24 -40 -15 -50 6 -7 6 -13 2 -13 -17 0 -34 -40 -28 -65 5
-21 8 -23 27 -12 32 18 37 28 32 67 -3 23 -2 30 4 21 5 -7 14 -10 21 -6 9 5 9
9 1 14 -7 5 -3 15 11 31 13 14 22 28 20 32 -1 5 9 14 23 20 14 6 25 17 25 24
0 21 -53 33 -65 14z"/>
<path d="M4665 2136 c37 -15 23 -25 -47 -33 -29 -3 -61 -11 -71 -18 -14 -10
-5 -13 59 -18 48 -5 83 -3 96 4 14 7 27 8 42 1 73 -33 76 -34 76 -4 0 41 -14
56 -45 48 -35 -9 -68 2 -61 20 4 11 -5 14 -37 14 l-42 -1 30 -13z"/>
<path d="M3500 2102 c0 -7 -7 -12 -17 -12 -14 0 -14 -2 2 -20 10 -11 16 -22
13 -25 -9 -9 -38 7 -38 21 0 8 -6 14 -14 14 -8 0 -20 2 -28 5 -7 3 -19 -4 -26
-15 -11 -18 -10 -21 13 -30 14 -5 25 -14 25 -20 0 -16 80 -12 86 5 4 10 15 13
37 9 29 -5 30 -4 15 9 -10 8 -18 22 -18 32 0 10 -3 15 -7 12 -3 -4 -15 0 -25
10 -11 9 -18 11 -18 5z"/>
<path d="M3581 2081 c-11 -7 -11 -10 0 -17 8 -5 23 -10 33 -11 19 -3 19 -3 1
17 -10 11 -19 20 -19 20 -1 0 -7 -4 -15 -9z"/>
<path d="M2802 2058 c5 -15 28 -23 28 -10 0 5 -7 13 -16 16 -10 4 -14 1 -12
-6z"/>
<path d="M3298 2045 c-4 -4 -4 -13 -1 -21 3 -8 -1 -14 -8 -14 -10 0 -11 -2 0
-12 10 -11 15 -9 27 7 12 16 17 17 23 7 7 -11 10 -10 15 3 11 29 7 35 -18 25
-16 -6 -26 -5 -28 1 -2 6 -6 7 -10 4z"/>
<path d="M830 2030 c-6 -4 -11 -10 -11 -14 0 -3 -2 -11 -4 -18 -2 -7 -6 -29
-7 -48 -2 -19 -7 -33 -13 -30 -5 3 -9 15 -7 28 2 18 -1 23 -15 20 -13 -2 -17
-11 -15 -33 2 -17 3 -65 4 -107 1 -55 5 -78 14 -82 9 -3 14 2 14 14 0 11 5 20
10 20 6 0 10 9 10 20 0 11 -7 20 -15 20 -12 0 -13 4 -5 19 13 25 13 34 0 26
-5 -3 -10 1 -10 9 0 26 37 -3 47 -37 4 -15 11 -27 14 -25 3 2 13 -3 22 -11 15
-12 17 -11 17 4 0 10 7 23 16 30 17 12 9 43 -11 44 -14 0 -19 31 -6 31 6 0 11
11 11 25 0 15 -6 25 -14 25 -19 0 -28 27 -10 34 8 3 14 12 14 20 0 16 -32 27
-50 16z m-3 -132 c-3 -7 -5 -2 -5 12 0 14 2 19 5 13 2 -7 2 -19 0 -25z"/>
<path d="M2767 2033 c-4 -3 -7 -11 -7 -17 0 -6 5 -5 12 2 6 6 9 14 7 17 -3 3
-9 2 -12 -2z"/>
<path d="M3000 2030 c0 -5 5 -10 10 -10 6 0 10 5 10 10 0 6 -4 10 -10 10 -5 0
-10 -4 -10 -10z"/>
<path d="M2440 2016 c0 -9 5 -16 10 -16 6 0 10 4 10 9 0 6 -4 13 -10 16 -5 3
-10 -1 -10 -9z"/>
<path d="M2720 2019 c0 -5 5 -7 10 -4 6 3 10 8 10 11 0 2 -4 4 -10 4 -5 0 -10
-5 -10 -11z"/>
<path d="M2900 2004 c0 -8 5 -12 10 -9 6 4 8 11 5 16 -9 14 -15 11 -15 -7z"/>
<path d="M3366 2005 c-8 -8 -19 -15 -25 -15 -5 0 -13 -5 -17 -11 -4 -8 1 -9
16 -4 19 6 21 4 15 -17 -5 -17 -4 -20 4 -12 11 10 33 74 26 74 -2 0 -10 -7
-19 -15z"/>
<path d="M2345 2000 c-3 -5 -2 -10 4 -10 5 0 13 5 16 10 3 6 2 10 -4 10 -5 0
-13 -4 -16 -10z"/>
<path d="M2395 2000 c-3 -5 -2 -10 4 -10 5 0 13 5 16 10 3 6 2 10 -4 10 -5 0
-13 -4 -16 -10z"/>
<path d="M2660 1999 c0 -5 5 -7 10 -4 6 3 10 8 10 11 0 2 -4 4 -10 4 -5 0 -10
-5 -10 -11z"/>
<path d="M4597 2003 c-14 -13 -6 -22 21 -25 21 -2 28 -9 30 -30 3 -27 2 -28
-44 -28 -51 0 -114 -18 -114 -33 0 -8 143 -4 207 5 48 7 23 -18 -42 -42 -38
-14 -69 -29 -69 -35 -1 -5 14 -14 32 -20 17 -5 32 -12 32 -17 0 -10 -69 -28
-112 -28 -20 0 -40 -4 -43 -10 -4 -6 28 -10 87 -10 85 0 98 3 128 25 19 14 44
25 57 25 20 0 23 -5 23 -34 0 -27 -7 -39 -30 -56 -29 -21 -29 -21 -49 -1 -17
17 -25 18 -63 10 -62 -14 -108 -40 -124 -71 -8 -16 -11 -29 -7 -29 5 -1 20 -3
35 -5 15 -1 36 -7 45 -13 15 -9 14 -11 -12 -12 -16 -1 -33 -1 -37 0 -23 3 -2
-16 31 -30 28 -12 51 -15 80 -9 23 4 43 9 45 11 1 2 24 28 51 57 47 51 50 57
56 125 4 40 9 79 11 87 2 9 -3 14 -12 11 -53 -12 -70 -12 -70 3 0 18 27 46 43
46 7 0 19 -5 27 -10 11 -7 17 0 27 33 7 23 13 51 13 63 0 19 -4 21 -49 16 -64
-6 -105 4 -97 23 4 12 -5 15 -48 15 -29 0 -56 -3 -59 -7z"/>
<path d="M3404 1992 c-6 -4 -14 -16 -18 -27 -7 -19 -5 -18 15 2 22 22 24 39 3
25z"/>
<path d="M3750 1969 c0 -32 6 -34 45 -19 24 9 25 10 8 28 -29 29 -53 26 -53
-9z"/>
<path d="M2930 1980 c0 -5 5 -10 11 -10 5 0 7 5 4 10 -3 6 -8 10 -11 10 -2 0
-4 -4 -4 -10z"/>
<path d="M3622 1979 c-13 -5 -20 -14 -17 -19 4 -6 4 -22 1 -35 -5 -20 -11 -23
-35 -20 -16 2 -41 10 -57 18 -24 12 -29 12 -46 -2 -18 -16 -26 -37 -9 -26 6 3
8 -7 7 -22 -2 -16 -4 -34 -5 -41 -1 -9 -8 -11 -21 -7 -11 3 -20 2 -20 -4 0 -6
-16 -8 -39 -5 -40 5 -60 -13 -44 -39 4 -7 9 -21 10 -32 2 -11 5 -31 8 -44 5
-18 3 -22 -9 -18 -9 4 -16 2 -16 -3 0 -5 -16 -12 -35 -16 -40 -7 -45 -26 -15
-64 11 -14 20 -31 20 -37 0 -7 5 -13 10 -13 6 0 10 -4 10 -10 0 -5 -7 -10 -15
-10 -8 0 -15 -4 -15 -10 0 -5 -5 -10 -11 -10 -13 0 -33 -21 -36 -37 -2 -7 6
-17 16 -23 11 -5 29 -24 41 -41 l22 -30 -21 -15 c-29 -20 -26 -35 11 -59 43
-27 58 -53 38 -65 -8 -5 -19 -11 -23 -13 -15 -5 4 -35 26 -41 12 -3 28 -15 36
-27 11 -19 11 -23 -3 -31 -20 -11 -21 -48 -1 -48 8 0 19 -9 25 -20 6 -11 16
-20 23 -20 7 0 29 -18 51 -40 24 -25 48 -40 63 -40 22 0 20 4 -26 48 -53 50
-81 101 -81 143 0 5 -4 8 -9 4 -5 -3 -13 0 -17 6 -4 8 -3 9 4 5 16 -9 15 -3
-3 40 -8 20 -12 40 -9 45 3 5 2 19 -1 30 -4 12 -10 17 -14 11 -3 -5 -7 20 -9
56 -1 36 -8 69 -14 73 -6 4 -7 12 -3 19 4 7 8 35 8 64 -1 28 2 56 6 61 3 6 7
30 8 54 2 58 8 70 38 81 14 5 38 32 55 59 19 31 40 51 56 55 15 4 24 12 21 20
-3 7 4 18 15 25 11 7 17 8 13 2 -10 -18 10 -13 46 12 19 12 46 28 62 36 28 15
36 31 15 31 -7 0 -23 11 -37 24 -21 19 -31 22 -49 15z m-172 -227 c0 -13 -12
-22 -22 -16 -10 6 -1 24 13 24 5 0 9 -4 9 -8z m-80 -162 c0 -5 -2 -10 -4 -10
-3 0 -8 5 -11 10 -3 6 -1 10 4 10 6 0 11 -4 11 -10z"/>
<path d="M3229 1973 c-22 -3 -27 -9 -25 -31 0 -15 10 -36 21 -47 18 -18 18
-20 2 -23 -9 -2 -17 -8 -17 -13 0 -5 -4 -9 -10 -9 -5 0 -7 6 -4 14 8 21 -17
32 -31 13 -7 -9 -16 -13 -20 -9 -5 4 -5 -1 -2 -11 4 -10 7 -25 7 -33 0 -8 7
-14 15 -14 8 0 15 5 15 11 0 8 5 8 15 -1 8 -7 14 -19 13 -28 -2 -8 3 -17 10
-19 6 -3 12 0 12 6 0 6 6 11 14 11 8 0 17 15 20 35 5 26 12 35 26 35 22 0 22
0 26 47 2 33 -9 52 -21 34 -10 -18 -36 0 -30 20 4 11 3 18 -2 18 -4 -1 -20 -4
-34 -6z m46 -83 c3 -5 -1 -10 -10 -10 -9 0 -13 5 -10 10 3 6 8 10 10 10 2 0 7
-4 10 -10z m-25 -50 c0 -5 -5 -10 -11 -10 -5 0 -7 5 -4 10 3 6 8 10 11 10 2 0
4 -4 4 -10z"/>
<path d="M3540 1961 c0 -5 5 -13 10 -16 6 -3 10 -2 10 4 0 5 -4 13 -10 16 -5
3 -10 2 -10 -4z"/>
<path d="M2560 1950 c0 -5 5 -10 11 -10 5 0 7 5 4 10 -3 6 -8 10 -11 10 -2 0
-4 -4 -4 -10z"/>
<path d="M4245 1939 c-22 -4 -68 -8 -102 -8 -53 -1 -63 -4 -68 -22 -6 -18 -14
-20 -68 -18 l-62 3 -8 -41 c-7 -36 -10 -40 -40 -41 -49 -3 -92 -18 -89 -32 5
-23 -9 -70 -22 -70 -7 0 -31 -14 -54 -31 -34 -25 -40 -34 -31 -45 6 -8 9 -14
6 -14 -3 0 -2 -14 3 -31 9 -31 10 -30 -42 -91 -16 -19 -16 -22 0 -44 9 -13 20
-24 25 -24 4 0 7 -7 7 -15 0 -8 5 -15 11 -15 13 0 2 -39 -17 -58 -21 -20 -17
-41 9 -52 62 -25 86 -61 54 -81 -15 -10 2 -47 26 -55 32 -9 66 -44 60 -60 -3
-8 0 -14 6 -14 6 0 11 -12 11 -26 0 -45 17 -64 58 -64 20 0 55 -5 76 -10 34
-7 46 -5 80 15 23 12 58 26 79 29 60 11 180 88 191 124 6 17 17 24 82 56 35
17 88 75 79 85 -4 3 -11 -2 -16 -12 -7 -12 -21 -17 -45 -15 -20 1 -38 -3 -42
-9 -4 -7 -21 -19 -37 -27 -27 -14 -32 -14 -61 3 l-32 19 -36 -34 c-42 -40 -47
-41 -71 -14 -13 15 -22 17 -36 9 -11 -5 -19 -7 -19 -3 0 3 -6 1 -14 -5 -13
-11 -46 -6 -46 7 0 3 7 14 17 24 15 17 15 18 -5 18 -26 0 -53 26 -48 48 1 9 8
30 15 47 12 28 10 32 -19 58 l-32 28 17 42 c16 39 16 42 -2 54 -35 24 -43 34
-43 52 0 20 43 71 60 71 14 0 12 11 -5 34 -8 11 -15 27 -15 36 0 21 35 49 70
56 23 5 29 12 32 37 3 36 34 49 83 35 25 -7 33 -4 53 17 16 18 30 24 48 21 22
-4 24 -1 24 30 0 19 -3 33 -7 33 -5 -1 -26 -5 -48 -10z m-260 -129 c3 -6 -6
-15 -20 -20 -14 -5 -24 -14 -21 -19 3 -4 -6 -6 -19 -3 -14 2 -33 -2 -42 -9
-15 -13 -15 -12 -5 8 7 12 31 28 54 36 24 9 44 16 45 16 1 1 5 -4 8 -9z m-82
-147 c-8 -27 -15 -54 -16 -60 0 -7 -4 -13 -9 -13 -14 0 -9 70 8 95 26 39 33
29 17 -22z m-70 20 c-6 -16 -5 -16 10 -4 24 19 30 10 17 -24 -11 -30 -40 -56
-52 -49 -5 3 -8 -2 -8 -11 0 -9 -4 -13 -10 -10 -21 13 -11 65 18 90 33 29 33
29 25 8z m61 -207 c5 -51 -5 -60 -22 -21 -13 29 -15 55 -6 80 10 25 22 -1 28
-59z m-99 22 c-1 -24 2 -53 6 -65 12 -32 -5 -29 -35 7 l-25 30 22 35 c12 19
24 34 28 35 3 0 4 -19 4 -42z m51 -14 c5 -26 3 -39 -7 -45 -20 -12 -45 47 -28
67 18 22 28 17 35 -22z m87 -158 c5 -31 0 -56 -12 -56 -14 0 -33 77 -26 99 7
22 8 22 19 4 7 -10 16 -31 19 -47z m-83 -28 c9 -29 8 -30 -9 -14 -9 9 -25 16
-34 16 -24 0 -30 18 -13 36 9 8 16 21 16 27 0 18 31 -31 40 -65z m33 24 c5
-24 3 -32 -5 -30 -17 6 -29 56 -15 61 15 5 13 8 20 -31z m12 -112 c19 0 35
-61 21 -79 -8 -10 -15 -8 -33 15 -13 16 -21 35 -18 42 3 8 6 23 6 35 1 17 2
18 6 5 2 -10 11 -18 18 -18z m84 -53 c0 -18 -3 -26 -6 -19 -2 6 -11 12 -18 12
-14 0 -25 30 -25 69 l0 24 25 -27 c16 -18 25 -38 24 -59z m285 -27 c-5 -5 -25
-12 -44 -15 l-35 -5 30 14 c35 18 64 21 49 6z m-317 -32 c-3 -8 -6 -5 -6 6 -1
11 2 17 5 13 3 -3 4 -12 1 -19z m-17 -2 c0 -8 7 -22 16 -30 17 -18 7 -21 -33
-10 -26 7 -29 18 -10 39 16 18 27 19 27 1z m185 -5 c19 -8 19 -8 -3 -15 -29
-9 -75 1 -67 14 7 12 42 12 70 1z m100 -31 c-3 -5 -12 -7 -20 -3 -21 7 -19 13
6 13 11 0 18 -4 14 -10z m-135 -19 c0 -17 -25 -30 -40 -21 -13 8 -12 10 3 10
9 0 17 5 17 10 0 6 5 10 10 10 6 0 10 -4 10 -9z"/>
<path d="M3891 1163 c-1 -12 4 -25 9 -28 12 -7 12 2 0 30 -8 19 -9 19 -9 -2z"/>
<path d="M2520 1930 c0 -5 5 -10 10 -10 6 0 10 5 10 10 0 6 -4 10 -10 10 -5 0
-10 -4 -10 -10z"/>
<path d="M2200 1910 c0 -5 5 -10 10 -10 6 0 10 5 10 10 0 6 -4 10 -10 10 -5 0
-10 -4 -10 -10z"/>
<path d="M702 1897 c-20 -27 -21 -48 -3 -66 12 -12 17 -28 14 -39 -3 -12 2
-22 13 -26 23 -9 28 -2 14 24 -10 18 -9 24 1 31 13 8 12 10 -10 13 -19 2 -23
16 -7 22 20 8 21 40 2 47 -8 3 -19 0 -24 -6z"/>
<path d="M1805 1900 c4 -6 11 -8 16 -5 14 9 11 15 -7 15 -8 0 -12 -5 -9 -10z"/>
<path d="M1905 1900 c3 -5 11 -10 16 -10 6 0 7 5 4 10 -3 6 -11 10 -16 10 -6
0 -7 -4 -4 -10z"/>
<path d="M2006 1898 c3 -4 9 -8 15 -8 5 0 9 4 9 8 0 5 -7 9 -15 9 -8 0 -12 -4
-9 -9z"/>
<path d="M2110 1899 c0 -5 5 -7 10 -4 6 3 10 8 10 11 0 2 -4 4 -10 4 -5 0 -10
-5 -10 -11z"/>
<path d="M3848 1893 c-16 -4 -27 -43 -13 -43 15 0 54 33 49 41 -5 9 -8 10 -36
2z"/>
<path d="M1856 1878 c3 -5 10 -6 15 -3 13 9 11 12 -6 12 -8 0 -12 -4 -9 -9z"/>
<path d="M1960 1880 c-13 -8 -12 -10 3 -10 9 0 17 5 17 10 0 12 -1 12 -20 0z"/>
<path d="M3396 1871 c-4 -5 -2 -12 3 -15 5 -4 12 -2 15 3 4 5 2 12 -3 15 -5 4
-12 2 -15 -3z"/>
<path d="M3753 1863 c-15 -5 -18 -53 -3 -53 16 0 60 23 60 31 0 7 -34 30 -42
28 -2 0 -9 -3 -15 -6z"/>
<path d="M631 1831 c-11 -7 -12 -17 -3 -54 7 -24 14 -52 18 -61 6 -16 3 -16
-45 -7 -2 1 2 8 9 16 9 11 9 18 -2 32 -14 20 -39 24 -49 8 -11 -17 -5 -70 8
-68 15 3 26 -31 18 -57 -8 -26 10 -50 37 -50 17 0 20 -5 15 -28 -7 -33 4 -54
24 -50 27 6 40 68 14 68 -12 0 -14 7 -9 28 10 39 12 39 27 2 20 -45 29 -23 23
54 -5 68 -12 90 -26 81 -10 -6 -22 24 -14 36 9 15 -5 59 -19 59 -6 0 -18 -4
-26 -9z m19 -182 c0 -6 -4 -7 -10 -4 -5 3 -10 11 -10 16 0 6 5 7 10 4 6 -3 10
-11 10 -16z"/>
<path d="M3664 1812 c-6 -4 -14 -17 -18 -28 -8 -26 17 -40 34 -18 7 8 19 14
27 14 8 0 13 7 11 17 -3 17 -36 27 -54 15z"/>
<path d="M1785 1790 c3 -5 8 -10 11 -10 2 0 4 5 4 10 0 6 -5 10 -11 10 -5 0
-7 -4 -4 -10z"/>
<path d="M1930 1780 c0 -5 5 -10 10 -10 6 0 10 5 10 10 0 6 -4 10 -10 10 -5 0
-10 -4 -10 -10z"/>
<path d="M3135 1781 c3 -6 -3 -15 -12 -21 -13 -8 -14 -13 -5 -16 6 -3 12 -14
12 -25 0 -10 7 -19 15 -19 11 0 14 7 9 24 -3 13 -1 27 6 31 8 5 8 10 -1 21
-13 16 -34 20 -24 5z"/>
<path d="M3173 1745 c-6 -15 -7 -27 -2 -31 5 -3 7 -9 4 -13 -2 -5 6 -8 18 -8
19 0 23 5 24 31 1 18 -1 23 -4 11 -5 -17 -7 -16 -17 8 l-11 27 -12 -25z"/>
<path d="M3564 1746 c-16 -17 -13 -44 7 -62 15 -14 21 -14 34 -4 8 7 15 9 15
4 0 -4 11 3 25 16 28 26 27 37 -2 21 -16 -8 -19 -6 -19 11 1 24 -42 34 -60 14z"/>
<path d="M3290 1731 c0 -5 5 -13 10 -16 6 -3 10 -2 10 4 0 5 -4 13 -10 16 -5
3 -10 2 -10 -4z"/>
<path d="M731 1714 c0 -11 3 -14 6 -6 3 7 2 16 -1 19 -3 4 -6 -2 -5 -13z"/>
<path d="M950 1720 c0 -5 7 -7 15 -4 8 4 15 8 15 10 0 2 -7 4 -15 4 -8 0 -15
-4 -15 -10z"/>
<path d="M881 1684 c0 -11 3 -14 6 -6 3 7 2 16 -1 19 -3 4 -6 -2 -5 -13z"/>
<path d="M3106 1659 c-11 -10 -15 -19 -8 -19 6 0 14 -9 17 -20 3 -11 14 -20
24 -20 26 0 42 -22 27 -36 -10 -9 -16 -7 -24 7 -16 24 -32 24 -32 0 0 -11 -6
-22 -12 -25 -10 -5 -10 -7 0 -12 6 -3 12 -12 12 -20 0 -17 36 -19 44 -1 3 9 9
7 19 -5 8 -10 16 -18 19 -18 9 0 6 160 -3 166 -5 3 -9 0 -9 -5 0 -6 -7 -11
-15 -11 -8 0 -15 9 -15 20 0 25 -19 25 -44 -1z"/>
<path d="M3494 1665 c-15 -10 -20 -22 -17 -40 5 -24 26 -34 37 -17 8 13 51 6
49 -7 -5 -21 13 -11 30 18 9 16 17 31 17 33 0 6 -46 2 -58 -6 -7 -4 -12 -4
-11 1 6 35 -13 43 -47 18z"/>
<path d="M828 1643 c-18 -5 -23 -15 -12 -26 7 -7 44 14 44 25 0 8 -4 9 -32 1z"/>
<path d="M4292 1572 c3 -40 11 -79 19 -88 7 -9 16 -37 19 -63 5 -44 7 -46 43
-55 54 -14 180 19 224 57 55 49 38 63 -32 26 -32 -16 -52 -19 -98 -15 -32 3
-69 12 -82 20 -21 14 -75 132 -75 163 0 7 -5 15 -11 19 -9 5 -11 -12 -7 -64z"/>
<path d="M3630 1600 c0 -5 5 -10 10 -10 6 0 10 5 10 10 0 6 -4 10 -10 10 -5 0
-10 -4 -10 -10z"/>
<path d="M797 1593 c-4 -3 -7 -11 -7 -17 0 -6 5 -5 12 2 6 6 9 14 7 17 -3 3
-9 2 -12 -2z"/>
<path d="M3442 1564 c-17 -19 -7 -64 13 -64 11 0 14 7 11 26 -3 15 -2 23 2 19
7 -7 8 -12 11 -41 1 -14 3 -14 16 0 8 8 15 19 15 25 0 12 13 15 23 4 4 -3 2
-12 -4 -19 -6 -8 -8 -22 -4 -31 6 -17 7 -17 17 1 15 27 20 76 8 76 -6 0 -10
-6 -10 -12 0 -10 -2 -10 -8 -1 -9 14 -26 5 -35 -17 -3 -10 -8 -3 -12 18 -8 35
-22 40 -43 16z"/>
<path d="M745 1561 c-3 -5 -1 -12 5 -16 5 -3 10 1 10 9 0 18 -6 21 -15 7z"/>
<path d="M3600 1490 c0 -5 5 -10 11 -10 5 0 7 5 4 10 -3 6 -8 10 -11 10 -2 0
-4 -4 -4 -10z"/>
<path d="M3425 1453 c-16 -36 -13 -44 26 -64 39 -19 46 -42 11 -32 -14 3 -18
-2 -20 -25 -2 -23 3 -31 20 -35 12 -4 26 -1 30 6 5 8 9 6 14 -6 4 -11 13 -16
24 -12 10 3 21 1 25 -5 11 -17 24 -11 22 10 -2 25 -47 71 -47 49 0 -12 -2 -11
-10 1 -14 21 -12 30 4 30 18 0 27 26 20 56 -6 23 -24 34 -24 14 0 -5 -4 -10
-10 -10 -5 0 -10 7 -10 15 0 18 -17 20 -23 3 -3 -10 -10 -8 -24 5 -20 17 -21
17 -28 0z"/>
<path d="M776 1421 c-4 -7 -5 -15 -2 -18 9 -9 19 4 14 18 -4 11 -6 11 -12 0z"/>
<path d="M3600 1376 c0 -9 5 -16 10 -16 6 0 10 4 10 9 0 6 -4 13 -10 16 -5 3
-10 -1 -10 -9z"/>
<path d="M3060 1370 c0 -5 5 -10 10 -10 6 0 10 5 10 10 0 6 -4 10 -10 10 -5 0
-10 -4 -10 -10z"/>
<path d="M4524 1336 c-9 -15 -14 -29 -12 -32 3 -2 13 7 22 22 10 14 15 28 13
31 -3 2 -13 -7 -23 -21z"/>
<path d="M611 1331 c-10 -6 -10 -10 -1 -16 13 -8 24 -1 19 14 -3 6 -10 7 -18
2z"/>
<path d="M3085 1291 c-3 -5 -1 -12 5 -16 5 -3 10 1 10 9 0 18 -6 21 -15 7z"/>
<path d="M3635 1291 c-3 -5 -1 -12 5 -16 5 -3 10 1 10 9 0 18 -6 21 -15 7z"/>
<path d="M210 1279 c0 -5 5 -7 10 -4 6 3 10 8 10 11 0 2 -4 4 -10 4 -5 0 -10
-5 -10 -11z"/>
<path d="M3475 1253 c-4 -12 1 -24 16 -36 22 -18 24 -18 36 -1 12 16 10 21 -9
36 -29 22 -34 22 -43 1z"/>
<path d="M240 1250 c0 -5 5 -10 10 -10 6 0 10 5 10 10 0 6 -4 10 -10 10 -5 0
-10 -4 -10 -10z"/>
<path d="M285 1250 c3 -5 8 -10 11 -10 2 0 4 5 4 10 0 6 -5 10 -11 10 -5 0 -7
-4 -4 -10z"/>
<path d="M3543 1230 c-2 -25 1 -28 25 -25 15 1 35 -2 45 -7 27 -14 22 24 -5
42 -40 26 -63 22 -65 -10z"/>
<path d="M3127 1226 c-4 -9 3 -16 19 -20 13 -4 24 -13 24 -21 0 -8 9 -15 20
-15 11 0 20 -4 20 -10 0 -5 4 -10 10 -10 19 0 -11 45 -45 68 -41 26 -41 26
-48 8z"/>
<path d="M370 1209 c0 -5 5 -7 10 -4 6 3 10 8 10 11 0 2 -4 4 -10 4 -5 0 -10
-5 -10 -11z"/>
<path d="M3522 1163 c2 -21 11 -29 43 -39 22 -6 32 -12 23 -13 -9 -1 -20 -6
-23 -12 -9 -13 33 -49 57 -49 11 0 22 -9 25 -19 11 -44 86 -26 90 21 1 15 -4
29 -12 32 -8 3 -23 23 -35 46 -11 22 -24 41 -28 41 -4 1 -29 3 -55 5 -35 2
-46 0 -41 -9 4 -7 -2 -4 -13 6 -27 24 -35 21 -31 -10z"/>
<path d="M179 1134 c-14 -16 -40 -74 -56 -124 -4 -13 -4 -13 6 0 5 8 13 12 16
8 3 -3 -1 -12 -9 -21 -18 -17 -31 -106 -18 -125 5 -7 16 -10 24 -7 19 7 31 46
19 58 -12 12 -1 47 14 47 15 0 29 44 15 48 -18 6 -11 49 8 55 23 5 37 47 17
47 -8 0 -15 7 -17 16 -3 14 -5 14 -19 -2z"/>
<path d="M259 1117 c-9 -7 -19 -23 -24 -36 -6 -20 -4 -22 14 -16 31 10 25 -8
-10 -29 -26 -15 -28 -20 -17 -33 10 -13 10 -17 0 -20 -6 -3 -10 -9 -6 -14 3
-5 0 -9 -6 -9 -8 0 -10 -9 -6 -24 4 -16 1 -26 -9 -30 -19 -7 -19 -40 -1 -55
18 -15 43 -5 49 21 5 16 2 19 -14 15 -10 -3 -19 -3 -19 0 0 8 28 33 39 33 5 0
13 5 17 11 4 8 -3 9 -26 4 -23 -5 -30 -4 -26 4 4 6 12 9 17 6 5 -4 9 -2 9 3 0
5 9 20 21 33 11 13 16 25 10 27 -16 5 -13 32 4 32 8 0 19 10 26 21 9 18 8 24
-5 31 -9 5 -14 13 -11 18 9 14 -9 19 -26 7z"/>
<path d="M3710 1120 c0 -5 5 -10 10 -10 6 0 10 5 10 10 0 6 -4 10 -10 10 -5 0
-10 -4 -10 -10z"/>
<path d="M3325 1077 c9 -28 32 -53 41 -44 10 9 -15 54 -33 61 -11 5 -13 0 -8
-17z"/>
<path d="M350 1081 c0 -6 -6 -11 -14 -11 -19 0 -29 -29 -15 -46 14 -17 -6 -55
-24 -48 -17 6 -19 -23 -4 -55 10 -21 9 -26 -11 -39 -26 -17 -29 -47 -6 -56 30
-11 52 -6 57 14 3 11 1 20 -4 20 -17 0 -9 18 11 23 23 6 30 -10 17 -40 -15
-33 5 -71 35 -69 20 1 23 6 23 37 0 20 5 42 11 50 18 22 27 59 15 59 -19 0
-12 29 9 40 21 11 28 50 9 50 -6 0 -9 7 -6 15 4 8 2 17 -3 20 -6 4 -10 1 -10
-4 0 -6 -8 -11 -19 -11 -14 0 -20 -10 -25 -40 -7 -44 -13 -48 -32 -22 -17 22
-17 32 0 32 18 0 33 43 17 48 -6 2 -11 10 -11 17 0 8 -4 17 -10 20 -5 3 -10 1
-10 -4z"/>
<path d="M3754 1011 c-10 -10 31 -41 54 -41 18 0 23 4 18 17 -4 9 -2 19 3 23
6 3 -8 6 -30 5 -22 0 -42 -2 -45 -4z"/>
<path d="M3370 1000 c0 -11 38 -32 50 -28 5 2 -4 11 -20 20 -17 9 -30 13 -30
8z"/>
<path d="M515 990 c-4 -6 -11 -8 -16 -5 -5 4 -9 -5 -9 -19 0 -18 5 -26 18 -26
16 -1 16 -1 -1 -11 -9 -5 -22 -7 -28 -3 -9 5 -10 -4 -5 -30 6 -29 4 -36 -9
-36 -10 0 -15 -7 -13 -17 2 -12 11 -17 23 -15 20 4 20 3 0 -11 -11 -9 -23 -13
-27 -11 -13 8 -20 -37 -8 -51 20 -24 60 -19 60 6 0 15 -5 19 -15 15 -8 -3 -15
-1 -15 5 0 5 14 12 30 16 32 6 39 20 15 29 -21 9 -19 31 5 44 26 14 26 34 -1
27 -16 -4 -18 -3 -8 9 6 8 17 14 24 14 20 0 28 32 11 42 -8 5 -13 15 -10 23 7
17 -11 21 -21 5z"/>
<path d="M640 936 c0 -9 5 -16 10 -16 6 0 10 4 10 9 0 6 -4 13 -10 16 -5 3
-10 -1 -10 -9z"/>
<path d="M570 920 c0 -11 4 -20 9 -20 5 0 7 9 4 20 -3 11 -7 20 -9 20 -2 0 -4
-9 -4 -20z"/>
<path d="M566 867 c-14 -15 -17 -28 -12 -59 6 -34 4 -40 -14 -45 -11 -3 -20
-11 -20 -18 0 -19 33 -44 54 -41 26 4 38 39 17 48 -11 5 -7 7 12 7 26 1 28 -1
25 -35 -2 -26 2 -40 14 -47 23 -15 34 -2 21 26 -9 19 -8 26 6 34 15 10 14 12
-3 32 -11 11 -15 21 -10 21 5 0 -2 6 -15 13 -14 7 -28 26 -33 44 -11 41 -18
45 -42 20z"/>
<path d="M496 564 c-4 -9 -4 -19 -1 -22 2 -3 7 3 11 12 4 9 4 19 1 22 -2 3 -7
-3 -11 -12z"/>
<path d="M1321 324 c0 -11 3 -14 6 -6 3 7 2 16 -1 19 -3 4 -6 -2 -5 -13z"/>
<path d="M570 300 c0 -5 5 -10 10 -10 6 0 10 5 10 10 0 6 -4 10 -10 10 -5 0
-10 -4 -10 -10z"/>
<path d="M1551 204 c0 -11 3 -14 6 -6 3 7 2 16 -1 19 -3 4 -6 -2 -5 -13z"/>
<path d="M39 190 c-9 -5 -20 -27 -23 -47 -4 -21 -10 -46 -13 -57 -3 -12 -1
-16 6 -12 6 4 11 0 11 -9 0 -9 -5 -13 -11 -9 -7 4 -10 -1 -7 -12 3 -20 35 -29
54 -17 6 5 14 23 17 42 6 27 4 32 -8 27 -19 -7 -19 8 0 28 16 16 19 35 9 60
-7 18 -13 19 -35 6z"/>
<path d="M106 168 c-3 -13 -1 -27 4 -32 14 -14 12 -26 -2 -23 -7 1 -11 -5 -9
-13 12 -48 12 -60 1 -60 -7 0 -10 7 -6 16 3 8 2 12 -4 9 -12 -7 -13 -35 -2
-36 62 -8 82 -7 82 7 0 8 -4 12 -10 9 -5 -3 -10 3 -10 14 0 12 5 21 10 21 17
0 11 25 -9 40 -11 7 -17 18 -14 23 3 5 9 3 14 -4 12 -20 22 -3 15 26 -8 33
-51 35 -60 3z"/>
<path d="M1541 144 c0 -11 3 -14 6 -6 3 7 2 16 -1 19 -3 4 -6 -2 -5 -13z"/>
<path d="M1526 103 c-6 -14 -5 -15 5 -6 7 7 10 15 7 18 -3 3 -9 -2 -12 -12z"/>
<path d="M3220 29 c0 -5 5 -7 10 -4 6 3 10 8 10 11 0 2 -4 4 -10 4 -5 0 -10
-5 -10 -11z"/>
</g>
</svg>
